<svg width="32" height="32" viewBox="0 0 32 32" fill="none" xmlns="http://www.w3.org/2000/svg">
<g clip-path="url(#clip0_237_41)">
<path fill-rule="evenodd" clip-rule="evenodd" d="M32 16C32 24.8366 24.8366 32 16 32C7.16344 32 0 24.8366 0 16C0 7.16344 7.16344 0 16 0C24.8366 0 32 7.16344 32 16ZM23.9673 10.7624C23.3395 8.39699 21.9568 6.72944 20.1971 5.75799C18.2663 4.69208 15.9815 4.51701 13.9331 5.01992C11.8864 5.52244 9.96245 6.73081 8.81209 8.57648C7.88486 10.0641 7.51354 11.8821 7.90378 13.9024C5.19449 14.5153 3.7483 16.7395 3.75 19.0012C3.75191 21.5355 5.57212 24.0242 8.94489 24.2473C9.63375 24.2928 10.2291 23.7714 10.2747 23.0825C10.3202 22.3937 9.79875 21.7983 9.1099 21.7527C7.11858 21.621 6.25097 20.2874 6.25 18.9993C6.24904 17.7295 7.09056 16.4138 9.03356 16.2535C9.27555 16.3635 9.55231 16.3968 9.82411 16.3355C10.0445 16.3876 10.2596 16.4628 10.4638 16.5598C11.0875 16.8559 11.8331 16.5904 12.1292 15.9668C12.4253 15.3432 12.1598 14.5976 11.5362 14.3014C11.196 14.1399 10.8393 14.0122 10.4726 13.9204C10.0178 12.2487 10.3031 10.9107 10.9337 9.89884C11.6804 8.70081 12.999 7.82353 14.5292 7.44781C16.0579 7.07249 17.6846 7.22659 18.9889 7.94663C19.9724 8.48962 20.8324 9.38572 21.3434 10.75H21.3423H21.3385H21.3347H21.331H21.3272H21.3234H21.3197H21.3159H21.3121H21.3084H21.3046H21.3009H21.2971H21.2934H21.2896H21.2859H21.2821H21.2783H21.2746H21.2708H21.2671H21.2634H21.2596H21.2559H21.2521H21.2484H21.2446H21.2409H21.2372H21.2334H21.2297H21.2259H21.2222H21.2185H21.2147H21.211H21.2073H21.2035H21.1998H21.1961H21.1924H21.1886H21.1849H21.1812H21.1775H21.1737H21.17H21.1663H21.1626H21.1589H21.1551H21.1514H21.1477H21.144H21.1403H21.1366H21.1329H21.1292H21.1254H21.1217H21.118H21.1143H21.1106H21.1069H21.1032H21.0995H21.0958H21.0921H21.0884H21.0847H21.081H21.0773H21.0736H21.0699H21.0663H21.0626H21.0589H21.0552H21.0515H21.0478H21.0441H21.0404H21.0368H21.0331H21.0294H21.0257H21.022H21.0184H21.0147H21.011H21.0073H21.0037H21C20.3096 10.75 19.75 11.3096 19.75 12C19.75 12.6904 20.3096 13.25 21 13.25H21.0037H21.0073H21.011H21.0147H21.0184H21.022H21.0257H21.0294H21.0331H21.0368H21.0404H21.0441H21.0478H21.0515H21.0552H21.0589H21.0626H21.0663H21.0699H21.0736H21.0773H21.081H21.0847H21.0884H21.0921H21.0958H21.0995H21.1032H21.1069H21.1106H21.1143H21.118H21.1217H21.1254H21.1292H21.1329H21.1366H21.1403H21.144H21.1477H21.1514H21.1551H21.1589H21.1626H21.1663H21.17H21.1737H21.1775H21.1812H21.1849H21.1886H21.1924H21.1961H21.1998H21.2035H21.2073H21.211H21.2147H21.2185H21.2222H21.2259H21.2297H21.2334H21.2372H21.2409H21.2446H21.2484H21.2521H21.2559H21.2596H21.2634H21.2671H21.2708H21.2746H21.2783H21.2821H21.2859H21.2896H21.2934H21.2971H21.3009H21.3046H21.3084H21.3121H21.3159H21.3197H21.3234H21.3272H21.331H21.3347H21.3385H21.3423H21.346H21.3498H21.3536H21.3573H21.3611H21.3649H21.3687H21.3724H21.3762H21.38H21.3838H21.3875H21.3913H21.3951H21.3989H21.4027H21.4065H21.4102H21.414H21.4178H21.4216H21.4254H21.4292H21.433H21.4368H21.4406H21.4443H21.4481H21.4519H21.4557H21.4595H21.4633H21.4671H21.4709H21.4747H21.4785H21.4823H21.4861H21.49H21.4938H21.4976H21.5014H21.5052H21.509H21.5128H21.5166H21.5204H21.5242H21.5281H21.5319H21.5357H21.5395H21.5433H21.5472H21.551H21.5548H21.5586H21.5624H21.5663H21.5701H21.5739H21.5777H21.5816H21.5854H21.5892H21.5931H21.5969H21.6007H21.6046H21.6084H21.6122H21.6161H21.6199H21.6238H21.6276H21.6314H21.6353H21.6391H21.643H21.6468H21.6506H21.6545H21.6583H21.6622H21.666H21.6699H21.6737H21.6776H21.6814H21.6853H21.6891H21.693H21.6969H21.7007H21.7046H21.7084H21.7123H21.7162H21.72H21.7239H21.7277H21.7316H21.7355H21.7393H21.7432H21.7471H21.7509H21.7548H21.7587H21.7626H21.7664H21.7703H21.7742H21.778H21.7819H21.7858H21.7897H21.7936H21.7974H21.8013H21.8052H21.8091H21.813H21.8168H21.8207H21.8246H21.8285H21.8324H21.8363H21.8402H21.8441H21.8479H21.8518H21.8557H21.8596H21.8635H21.8674H21.8713H21.8752H21.8791H21.883H21.8869H21.8908H21.8947H21.8986H21.9025H21.9064H21.9103H21.9142H21.9181H21.922H21.9259H21.9298H21.9338H21.9377H21.9416H21.9455H21.9494H21.9533H21.9572H21.9611H21.9651H21.969H21.9729H21.9768H21.9807H21.9846H21.9886H21.9925H21.9964H22.0003H22.0043H22.0082H22.0121H22.016H22.02H22.0239H22.0278H22.0318H22.0357H22.0396H22.0435H22.0475H22.0514H22.0554H22.0593H22.0632H22.0672H22.0711H22.075H22.079H22.0829H22.0869H22.0908H22.0947H22.0987H22.1026H22.1066H22.1105H22.1145H22.1184H22.1224H22.1263H22.1303H22.1342H22.1382H22.1421H22.1461H22.15H22.154H22.1579H22.1619H22.1658H22.1698H22.1738H22.1777H22.1817H22.1856H22.1896H22.1936H22.1975H22.2015H22.2055H22.2094H22.2134H22.2174H22.2213H22.2253H22.2293H22.2332H22.2372H22.2412H22.2451H22.2491H22.2531H22.2571H22.261H22.265H22.269H22.273H22.2769H22.2809H22.2849H22.2889H22.2929H22.2969H22.3008H22.3048H22.3088H22.3128H22.3168H22.3208H22.3247H22.3287H22.3327H22.3367H22.3407H22.3447H22.3487H22.3527H22.3567H22.3607H22.3647H22.3687H22.3726H22.3766H22.3806H22.3846H22.3886H22.3926H22.3966H22.4006H22.4046H22.4086H22.4126H22.4166H22.4207H22.4247H22.4287H22.4327H22.4367H22.4407H22.4447H22.4487H22.4527H22.4567H22.4607H22.4647H22.4688H22.4728H22.4768H22.4808H22.4848H22.4888H22.4928H22.4969H22.5009H22.5049H22.5089H22.5129H22.517H22.521H22.525H22.529H22.5331H22.5371H22.5411H22.5451H22.5492H22.5532H22.5572H22.5612H22.5653H22.5693H22.5733H22.5774H22.5814H22.5854H22.5895H22.5935H22.5975H22.6016H22.6056H22.6096H22.6137H22.6177H22.6217H22.6258H22.6298H22.6339H22.6379H22.6419H22.646H22.65H22.6541H22.6581H22.6622H22.6662H22.6702H22.6743H22.6783H22.6824H22.6864H22.6905H22.6945H22.6986H22.7026H22.7067H22.7107H22.7148H22.7189H22.7229H22.727H22.731H22.7351H22.7391H22.7432H22.7472H22.7513H22.7554H22.7594H22.7635H22.7675H22.7716H22.7757H22.7797H22.7838H22.7879H22.7919H22.796H22.8001H22.8041H22.8082H22.8123H22.8163H22.8204H22.8245H22.8285H22.8326H22.8367H22.8407H22.8448H22.8489H22.853H22.857H22.8611H22.8652H22.8693H22.8733H22.8774H22.8815H22.8856H22.8897H22.8937H22.8978H22.9019H22.906H22.9101H22.9141H22.9182H22.9223H22.9264H22.9305H22.9346H22.9386H22.9427H22.9468H22.9509H22.955H22.9591H22.9632H22.9673H22.9714H22.9754H22.9795H22.9836H22.9877H22.9918H22.9959H23C23.1327 13.25 23.2606 13.2293 23.3805 13.191C26.8214 14.0404 27.8923 18.4285 25.2903 20.5598L25.2721 20.5751C24.3845 21.3307 23.217 21.7584 21.9951 21.7499C21.3047 21.745 20.7412 22.3008 20.7363 22.9911C20.7315 23.6814 21.2872 24.245 21.9776 24.2498C23.7841 24.2624 25.532 23.6333 26.8837 22.4863C31.2787 18.8744 29.1662 12.0539 23.9673 10.7624ZM17.8103 19.6681C17.12 19.6681 16.5603 20.2277 16.5603 20.9181C16.5603 21.6085 17.12 22.1681 17.8103 22.1681H17.8208C18.5112 22.1681 19.0708 21.6085 19.0708 20.9181C19.0708 20.2277 18.5112 19.6681 17.8208 19.6681H17.8103ZM11.8953 20.9181C11.8953 20.2277 12.4549 19.6681 13.1453 19.6681H13.1558C13.8461 19.6681 14.4058 20.2277 14.4058 20.9181C14.4058 21.6085 13.8461 22.1681 13.1558 22.1681H13.1453C12.4549 22.1681 11.8953 21.6085 11.8953 20.9181ZM15.4783 23.1671C14.7879 23.1671 14.2283 23.7268 14.2283 24.4171C14.2283 25.1075 14.7879 25.6671 15.4783 25.6671H15.4888C16.1791 25.6671 16.7388 25.1075 16.7388 24.4171C16.7388 23.7268 16.1791 23.1671 15.4888 23.1671H15.4783Z" fill="white"/>
</g>
<defs>
<clipPath id="clip0_237_41">
<rect width="32" height="32" fill="white"/>
</clipPath>
</defs>
</svg>
