<svg width="174" height="24" viewBox="0 0 174 24" fill="none" xmlns="http://www.w3.org/2000/svg">
<g clip-path="url(#clip0_21_130)">
<mask id="mask0_21_130" style="mask-type:luminance" maskUnits="userSpaceOnUse" x="0" y="0" width="174" height="24">
<path d="M174 0.5H0V23.5H174V0.5Z" fill="white"/>
</mask>
<g mask="url(#mask0_21_130)">
<path d="M43.7867 5.92773L38.4111 19.146H36.653L31.2773 5.92773H32.8422C33.014 5.92773 33.1521 5.97068 33.2564 6.0566C33.3668 6.14251 33.4497 6.25297 33.5049 6.38797L37.0764 15.372C37.1623 15.5929 37.2451 15.8353 37.3249 16.0992C37.4108 16.3631 37.4875 16.6392 37.555 16.9276C37.6164 16.6392 37.6839 16.3631 37.7575 16.0992C37.8312 15.8353 37.911 15.5929 37.9969 15.372L41.5591 6.38797C41.6021 6.26524 41.6788 6.15785 41.7893 6.0658C41.9058 5.97375 42.047 5.92773 42.2127 5.92773H43.7867Z" fill="white"/>
<path d="M46.1082 9.79389V19.1461H44.3133V9.79389H46.1082ZM46.4488 6.90355C46.4488 7.06924 46.4151 7.22879 46.3476 7.3822C46.2801 7.52948 46.188 7.66142 46.0714 7.77802C45.961 7.88848 45.829 7.97746 45.6756 8.04496C45.5222 8.10632 45.3627 8.13701 45.197 8.13701C45.0313 8.13701 44.8748 8.10632 44.7275 8.04496C44.5802 7.97746 44.4483 7.88848 44.3317 7.77802C44.2213 7.66142 44.1323 7.52948 44.0648 7.3822C44.0034 7.22879 43.9727 7.06924 43.9727 6.90355C43.9727 6.73172 44.0034 6.57217 44.0648 6.42489C44.1323 6.27148 44.2213 6.13954 44.3317 6.02908C44.4483 5.91249 44.5802 5.8235 44.7275 5.76214C44.8748 5.69464 45.0313 5.66089 45.197 5.66089C45.3627 5.66089 45.5222 5.69464 45.6756 5.76214C45.829 5.8235 45.961 5.91249 46.0714 6.02908C46.188 6.13954 46.2801 6.27148 46.3476 6.42489C46.4151 6.57217 46.4488 6.73172 46.4488 6.90355Z" fill="white"/>
<path d="M53.5272 11.4046C53.4781 11.4844 53.426 11.5427 53.3708 11.5795C53.3155 11.6102 53.245 11.6255 53.159 11.6255C53.0609 11.6255 52.9504 11.5918 52.8277 11.5243C52.7111 11.4568 52.5669 11.3831 52.395 11.3033C52.2294 11.2236 52.033 11.1499 51.8059 11.0824C51.5789 11.0149 51.3089 10.9812 50.9959 10.9812C50.7382 10.9812 50.5019 11.0149 50.2871 11.0824C50.0785 11.1438 49.9005 11.2328 49.7533 11.3494C49.606 11.4598 49.4925 11.5948 49.4127 11.7544C49.3329 11.9078 49.293 12.0735 49.293 12.2514C49.293 12.4846 49.3605 12.6779 49.4955 12.8314C49.6367 12.9848 49.8177 13.1167 50.0386 13.2272C50.2657 13.3376 50.5203 13.4389 50.8026 13.5309C51.091 13.6168 51.3825 13.7089 51.6771 13.8071C51.9778 13.9053 52.2692 14.0188 52.5515 14.1477C52.8399 14.2704 53.0946 14.4269 53.3155 14.6171C53.5426 14.8012 53.7236 15.0252 53.8586 15.2891C53.9998 15.5529 54.0703 15.8751 54.0703 16.2556C54.0703 16.6913 53.9905 17.0963 53.831 17.4706C53.6776 17.8388 53.4475 18.1579 53.1406 18.4279C52.8399 18.698 52.4656 18.9097 52.0176 19.0631C51.5697 19.2165 51.0573 19.2932 50.4804 19.2932C49.8361 19.2932 49.2409 19.1858 48.6947 18.971C48.1486 18.7563 47.6914 18.4832 47.3232 18.1518L47.7466 17.4614C47.7957 17.3755 47.8571 17.3111 47.9307 17.2681C48.0043 17.219 48.1025 17.1945 48.2253 17.1945C48.3419 17.1945 48.4615 17.2374 48.5842 17.3234C48.707 17.4093 48.8543 17.5044 49.0261 17.6087C49.1979 17.7069 49.4065 17.7989 49.652 17.8849C49.8975 17.9646 50.2043 18.0045 50.5725 18.0045C50.8793 18.0045 51.1463 17.9677 51.3733 17.8941C51.6004 17.8143 51.7875 17.71 51.9348 17.5811C52.0882 17.4461 52.2017 17.2927 52.2754 17.1208C52.349 16.949 52.3858 16.768 52.3858 16.5778C52.3858 16.3323 52.3153 16.1298 52.1741 15.9702C52.0391 15.8045 51.8581 15.6634 51.631 15.5468C51.4101 15.4302 51.1555 15.329 50.867 15.243C50.5786 15.1571 50.2841 15.0651 49.9834 14.9669C49.6827 14.8687 49.3881 14.7552 49.0997 14.6263C48.8113 14.4974 48.5536 14.3348 48.3265 14.1385C48.1056 13.9421 47.9246 13.7028 47.7834 13.4205C47.6484 13.1382 47.5809 12.7945 47.5809 12.3895C47.5809 12.0275 47.6546 11.6807 47.8018 11.3494C47.9553 11.018 48.1731 10.7265 48.4554 10.4749C48.7438 10.2233 49.0967 10.0239 49.5139 9.87661C49.9374 9.72319 50.4191 9.64648 50.9591 9.64648C51.5789 9.64648 52.1373 9.74467 52.6344 9.94104C53.1376 10.1374 53.5671 10.4074 53.923 10.751L53.5272 11.4046Z" fill="white"/>
<path d="M62.8032 9.79395V19.1461H61.7262C61.4807 19.1461 61.3212 19.0265 61.2476 18.7871L61.1187 17.8482C60.9162 18.063 60.7045 18.2594 60.4836 18.4374C60.2626 18.6153 60.0264 18.7687 59.7748 18.8976C59.5232 19.0203 59.2562 19.1154 58.974 19.1829C58.6917 19.2566 58.3879 19.2934 58.0627 19.2934C57.5472 19.2934 57.0931 19.2075 56.7004 19.0357C56.3138 18.8638 55.9885 18.6245 55.7247 18.3177C55.4608 18.0047 55.2614 17.6304 55.1263 17.1947C54.9913 16.759 54.9238 16.2773 54.9238 15.7495V9.79395H56.728V15.7495C56.728 16.4184 56.8814 16.94 57.1882 17.3144C57.4951 17.6825 57.9645 17.8666 58.5966 17.8666C59.0568 17.8666 59.4864 17.7593 59.8852 17.5445C60.2841 17.3236 60.6584 17.0229 61.0082 16.6424V9.79395H62.8032Z" fill="white"/>
<path d="M69.8904 14.9946C69.1602 15.0192 68.5404 15.0775 68.0311 15.1695C67.5217 15.2554 67.1075 15.372 66.7884 15.5193C66.4693 15.6666 66.2392 15.8415 66.098 16.044C65.9569 16.2403 65.8863 16.4613 65.8863 16.7067C65.8863 16.9399 65.9231 17.1424 65.9968 17.3143C66.0766 17.4799 66.1809 17.618 66.3097 17.7285C66.4448 17.8328 66.6012 17.9095 66.7792 17.9586C66.9572 18.0077 67.1505 18.0322 67.3591 18.0322C67.6352 18.0322 67.8868 18.0046 68.1139 17.9494C68.3471 17.8942 68.5649 17.8175 68.7674 17.7193C68.9699 17.6149 69.1632 17.4891 69.3473 17.3419C69.5314 17.1946 69.7125 17.0258 69.8904 16.8356V14.9946ZM64.6253 11.1009C65.1469 10.6039 65.7114 10.2326 66.319 9.9871C66.9326 9.74163 67.6046 9.6189 68.3348 9.6189C68.8687 9.6189 69.3412 9.70788 69.7524 9.88584C70.1635 10.0577 70.5102 10.3001 70.7925 10.6131C71.0748 10.926 71.2865 11.3004 71.4276 11.7361C71.5749 12.1718 71.6485 12.6535 71.6485 13.1812V19.146H70.8477C70.6698 19.146 70.5348 19.1184 70.4427 19.0632C70.3507 19.0018 70.277 18.8914 70.2218 18.7318L70.0285 17.9126C69.7892 18.1335 69.5529 18.3299 69.3197 18.5017C69.0865 18.6674 68.8411 18.8116 68.5833 18.9343C68.3317 19.0509 68.0617 19.1399 67.7733 19.2013C67.4849 19.2626 67.1658 19.2933 66.816 19.2933C66.4478 19.2933 66.1011 19.2442 65.7759 19.146C65.4568 19.0417 65.1776 18.8852 64.9382 18.6766C64.6989 18.4679 64.5087 18.2071 64.3675 17.8942C64.2325 17.5812 64.165 17.2161 64.165 16.7988C64.165 16.4306 64.2632 16.0777 64.4596 15.7402C64.6621 15.3966 64.9873 15.0897 65.4353 14.8197C65.8894 14.5497 66.4785 14.3288 67.2026 14.157C67.9329 13.9851 68.8288 13.887 69.8904 13.8624V13.1812C69.8904 12.4755 69.7401 11.9478 69.4394 11.598C69.1387 11.2482 68.6969 11.0733 68.1139 11.0733C67.7212 11.0733 67.3898 11.1224 67.1198 11.2206C66.8559 11.3188 66.6258 11.4292 66.4294 11.552C66.2392 11.6686 66.0704 11.776 65.9231 11.8741C65.782 11.9723 65.6347 12.0214 65.4813 12.0214C65.3586 12.0214 65.2512 11.9877 65.1591 11.9202C65.0732 11.8527 65.0027 11.7729 64.9474 11.6808L64.6253 11.1009Z" fill="white"/>
<path d="M75.2222 5.55957V19.146H73.418V5.55957H75.2222Z" fill="white"/>
<path d="M88.8435 8.08175C88.7821 8.18607 88.7177 8.26278 88.6502 8.31187C88.5827 8.36096 88.4968 8.38551 88.3924 8.38551C88.282 8.38551 88.1562 8.33642 88.015 8.23823C87.8739 8.13391 87.6959 8.02038 87.4811 7.89765C87.2725 7.76878 87.0209 7.65525 86.7263 7.55707C86.4318 7.45275 86.0789 7.40058 85.6678 7.40058C85.2812 7.40058 84.9406 7.45275 84.646 7.55707C84.3576 7.65525 84.1152 7.79333 83.9189 7.97129C83.7225 8.14311 83.5721 8.34869 83.4678 8.58802C83.3696 8.82121 83.3205 9.07588 83.3205 9.35203C83.3205 9.70795 83.4095 10.0025 83.5875 10.2357C83.7716 10.4689 84.0109 10.6683 84.3055 10.834C84.6 10.9997 84.9345 11.1439 85.3088 11.2666C85.6831 11.3894 86.0667 11.5182 86.4594 11.6532C86.8521 11.7821 87.2357 11.9324 87.61 12.1043C87.9843 12.2761 88.3188 12.4939 88.6134 12.7578C88.9079 13.0156 89.1442 13.3347 89.3221 13.7151C89.5062 14.0895 89.5983 14.5497 89.5983 15.0959C89.5983 15.6788 89.497 16.225 89.2945 16.7343C89.0981 17.2437 88.8097 17.6886 88.4293 18.0691C88.0488 18.4495 87.5793 18.7502 87.0209 18.9711C86.4686 19.1859 85.8396 19.2933 85.1339 19.2933C84.7105 19.2933 84.2993 19.2504 83.9004 19.1644C83.5016 19.0847 83.1242 18.9711 82.7683 18.8239C82.4123 18.6704 82.0779 18.4894 81.7649 18.2808C81.4581 18.066 81.182 17.8267 80.9365 17.5628L81.498 16.6239C81.5532 16.5502 81.6177 16.4889 81.6913 16.4398C81.7711 16.3907 81.86 16.3661 81.9582 16.3661C82.0871 16.3661 82.2344 16.4336 82.4001 16.5687C82.5719 16.7037 82.7805 16.854 83.026 17.0197C83.2776 17.1792 83.5752 17.3265 83.9189 17.4615C84.2686 17.5965 84.6921 17.664 85.1891 17.664C85.5941 17.664 85.9562 17.6119 86.2753 17.5076C86.5944 17.3971 86.8613 17.2437 87.0761 17.0473C87.297 16.8448 87.4658 16.6024 87.5824 16.3201C87.699 16.0378 87.7573 15.7249 87.7573 15.3812C87.7573 14.9946 87.6683 14.6786 87.4903 14.4331C87.3124 14.1876 87.0761 13.9821 86.7816 13.8164C86.487 13.6507 86.1526 13.5096 85.7782 13.393C85.4039 13.2764 85.0204 13.1567 84.6276 13.034C84.2349 12.9051 83.8514 12.7578 83.477 12.5921C83.1027 12.4264 82.7683 12.2117 82.4737 11.9478C82.1791 11.6778 81.9429 11.3433 81.7649 10.9444C81.587 10.5394 81.498 10.0424 81.498 9.45328C81.498 8.98076 81.59 8.52358 81.7741 8.08175C81.9582 7.63991 82.2252 7.25024 82.575 6.91272C82.9309 6.56907 83.3666 6.29599 83.882 6.09349C84.3975 5.88484 84.9866 5.78052 85.6494 5.78052C86.3919 5.78052 87.0731 5.90018 87.6929 6.13951C88.3188 6.3727 88.8619 6.71022 89.3221 7.15205L88.8435 8.08175Z" fill="white"/>
<path d="M93.593 19.2933C92.8382 19.2933 92.2552 19.0816 91.8441 18.6582C91.439 18.2347 91.2365 17.6303 91.2365 16.8448V11.2482H90.1504C90.046 11.2482 89.9571 11.2175 89.8834 11.1562C89.8159 11.0887 89.7822 10.9905 89.7822 10.8616V10.1344L91.301 9.92272L91.706 7.13363C91.7305 7.02931 91.7765 6.94953 91.8441 6.8943C91.9177 6.83294 92.0097 6.80225 92.1202 6.80225H93.0315V9.94113H95.6825V11.2482H93.0315V16.7251C93.0315 17.0933 93.1204 17.3695 93.2984 17.5536C93.4825 17.7315 93.7157 17.8205 93.998 17.8205C94.1637 17.8205 94.3048 17.799 94.4214 17.7561C94.5441 17.7131 94.6485 17.6671 94.7344 17.618C94.8203 17.5628 94.8939 17.5137 94.9553 17.4707C95.0166 17.4278 95.0719 17.4063 95.121 17.4063C95.1823 17.4063 95.2284 17.4216 95.259 17.4523C95.2959 17.4769 95.3327 17.5198 95.3695 17.5812L95.9034 18.4465C95.6088 18.7165 95.259 18.9251 94.854 19.0724C94.449 19.2197 94.0287 19.2933 93.593 19.2933Z" fill="white"/>
<path d="M104.377 9.79395V19.1461H103.3C103.054 19.1461 102.895 19.0265 102.821 18.7871L102.692 17.8482C102.49 18.063 102.278 18.2594 102.057 18.4374C101.836 18.6153 101.6 18.7687 101.349 18.8976C101.097 19.0203 100.83 19.1154 100.548 19.1829C100.265 19.2566 99.9621 19.2934 99.6368 19.2934C99.1213 19.2934 98.6673 19.2075 98.2746 19.0357C97.888 18.8638 97.5628 18.6245 97.2989 18.3177C97.035 18.0047 96.8356 17.6304 96.7006 17.1947C96.5656 16.759 96.498 16.2773 96.498 15.7495V9.79395H98.3021V15.7495C98.3021 16.4184 98.4556 16.94 98.7625 17.3144C99.0693 17.6825 99.5386 17.8666 100.17 17.8666C100.631 17.8666 101.06 17.7593 101.459 17.5445C101.858 17.3236 102.232 17.0229 102.582 16.6424V9.79395H104.377Z" fill="white"/>
<path d="M112.303 12.0582C112.008 11.6716 111.689 11.4016 111.345 11.2482C111.008 11.0948 110.628 11.0181 110.204 11.0181C109.382 11.0181 108.744 11.3157 108.289 11.911C107.842 12.5001 107.618 13.3623 107.618 14.4975C107.618 15.0928 107.667 15.6021 107.765 16.0256C107.869 16.4429 108.016 16.7865 108.207 17.0565C108.403 17.3204 108.642 17.5168 108.925 17.6456C109.207 17.7684 109.526 17.8297 109.882 17.8297C110.404 17.8297 110.855 17.7131 111.235 17.4799C111.615 17.2467 111.971 16.9184 112.303 16.495V12.0582ZM114.107 5.55957V19.146H113.021C112.769 19.146 112.613 19.0264 112.551 18.787L112.395 17.7101C111.996 18.1826 111.542 18.5631 111.033 18.8515C110.529 19.1338 109.946 19.2749 109.284 19.2749C108.75 19.2749 108.265 19.1706 107.829 18.9619C107.4 18.7533 107.031 18.4495 106.725 18.0506C106.418 17.6456 106.182 17.1455 106.016 16.5502C105.85 15.955 105.767 15.2708 105.767 14.4975C105.767 13.8041 105.859 13.1598 106.044 12.5645C106.228 11.9693 106.495 11.4538 106.844 11.0181C107.194 10.5824 107.618 10.2418 108.115 9.99634C108.612 9.74474 109.173 9.61894 109.799 9.61894C110.364 9.61894 110.842 9.71099 111.235 9.89509C111.634 10.0792 111.99 10.34 112.303 10.6775V5.55957H114.107Z" fill="white"/>
<path d="M118.484 9.79389V19.1461H116.69V9.79389H118.484ZM118.825 6.90355C118.825 7.06924 118.791 7.22879 118.724 7.3822C118.656 7.52948 118.564 7.66142 118.448 7.77802C118.337 7.88848 118.205 7.97746 118.052 8.04496C117.898 8.10632 117.739 8.13701 117.573 8.13701C117.408 8.13701 117.251 8.10632 117.104 8.04496C116.956 7.97746 116.825 7.88848 116.708 7.77802C116.597 7.66142 116.509 7.52948 116.441 7.3822C116.38 7.22879 116.349 7.06924 116.349 6.90355C116.349 6.73172 116.38 6.57217 116.441 6.42489C116.509 6.27148 116.597 6.13954 116.708 6.02908C116.825 5.91249 116.956 5.8235 117.104 5.76214C117.251 5.69464 117.408 5.66089 117.573 5.66089C117.739 5.66089 117.898 5.69464 118.052 5.76214C118.205 5.8235 118.337 5.91249 118.448 6.02908C118.564 6.13954 118.656 6.27148 118.724 6.42489C118.791 6.57217 118.825 6.73172 118.825 6.90355Z" fill="white"/>
<path d="M124.517 9.64648C125.204 9.64648 125.824 9.76001 126.376 9.98707C126.934 10.208 127.407 10.5301 127.794 10.9536C128.186 11.3708 128.487 11.8771 128.696 12.4724C128.904 13.0615 129.009 13.7242 129.009 14.4606C129.009 15.197 128.904 15.8628 128.696 16.4581C128.487 17.0533 128.186 17.5596 127.794 17.9769C127.407 18.3942 126.934 18.7164 126.376 18.9434C125.824 19.1643 125.204 19.2748 124.517 19.2748C123.823 19.2748 123.197 19.1643 122.639 18.9434C122.087 18.7164 121.614 18.3942 121.221 17.9769C120.829 17.5596 120.525 17.0533 120.31 16.4581C120.101 15.8628 119.997 15.197 119.997 14.4606C119.997 13.7242 120.101 13.0615 120.31 12.4724C120.525 11.8771 120.829 11.3708 121.221 10.9536C121.614 10.5301 122.087 10.208 122.639 9.98707C123.197 9.76001 123.823 9.64648 124.517 9.64648ZM124.517 17.8757C125.4 17.8757 126.06 17.578 126.496 16.9828C126.931 16.3875 127.149 15.5499 127.149 14.4698C127.149 13.3898 126.931 12.5521 126.496 11.9569C126.06 11.3555 125.4 11.0548 124.517 11.0548C123.621 11.0548 122.952 11.3555 122.51 11.9569C122.074 12.5521 121.856 13.3898 121.856 14.4698C121.856 15.5499 122.074 16.3875 122.51 16.9828C122.952 17.578 123.621 17.8757 124.517 17.8757Z" fill="white"/>
<path d="M144.165 16.3109C144.275 16.3109 144.37 16.3539 144.45 16.4398L145.223 17.2866C144.683 17.9248 144.024 18.4188 143.244 18.7686C142.471 19.1184 141.538 19.2933 140.446 19.2933C139.489 19.2933 138.62 19.1276 137.841 18.7962C137.068 18.4649 136.405 18.0016 135.853 17.4063C135.307 16.811 134.883 16.0992 134.582 15.2708C134.282 14.4423 134.131 13.531 134.131 12.5369C134.131 11.5428 134.288 10.6315 134.601 9.80307C134.92 8.97462 135.365 8.26278 135.936 7.66753C136.506 7.07227 137.187 6.60896 137.979 6.27758C138.777 5.94621 139.657 5.78052 140.621 5.78052C141.56 5.78052 142.394 5.93393 143.125 6.24076C143.855 6.54759 144.49 6.95568 145.03 7.46502L144.386 8.37631C144.343 8.44381 144.287 8.49904 144.22 8.54199C144.159 8.58495 144.076 8.60643 143.971 8.60643C143.855 8.60643 143.717 8.54813 143.557 8.43154C143.404 8.31494 143.198 8.18607 142.94 8.04493C142.689 7.89765 142.376 7.76571 142.002 7.64912C141.627 7.53252 141.161 7.47422 140.602 7.47422C139.946 7.47422 139.344 7.59082 138.798 7.82401C138.252 8.05107 137.78 8.38244 137.381 8.81814C136.988 9.2477 136.681 9.77852 136.46 10.4106C136.245 11.0365 136.138 11.7453 136.138 12.5369C136.138 13.3408 136.252 14.0557 136.479 14.6816C136.706 15.3076 137.019 15.8384 137.418 16.2741C137.816 16.7098 138.286 17.0412 138.826 17.2682C139.366 17.4953 139.949 17.6088 140.575 17.6088C140.955 17.6088 141.296 17.5873 141.597 17.5444C141.903 17.4953 142.183 17.4247 142.434 17.3327C142.692 17.2406 142.934 17.124 143.161 16.9829C143.388 16.8356 143.612 16.6607 143.833 16.4582C143.882 16.4152 143.935 16.3815 143.99 16.3569C144.045 16.3263 144.103 16.3109 144.165 16.3109Z" fill="white"/>
<path d="M149.586 9.64648C150.273 9.64648 150.893 9.76001 151.445 9.98707C152.003 10.208 152.476 10.5301 152.863 10.9536C153.255 11.3708 153.556 11.8771 153.765 12.4724C153.973 13.0615 154.078 13.7242 154.078 14.4606C154.078 15.197 153.973 15.8628 153.765 16.4581C153.556 17.0533 153.255 17.5596 152.863 17.9769C152.476 18.3942 152.003 18.7164 151.445 18.9434C150.893 19.1643 150.273 19.2748 149.586 19.2748C148.892 19.2748 148.266 19.1643 147.708 18.9434C147.156 18.7164 146.683 18.3942 146.29 17.9769C145.898 17.5596 145.594 17.0533 145.379 16.4581C145.17 15.8628 145.066 15.197 145.066 14.4606C145.066 13.7242 145.17 13.0615 145.379 12.4724C145.594 11.8771 145.898 11.3708 146.29 10.9536C146.683 10.5301 147.156 10.208 147.708 9.98707C148.266 9.76001 148.892 9.64648 149.586 9.64648ZM149.586 17.8757C150.469 17.8757 151.129 17.578 151.565 16.9828C152 16.3875 152.218 15.5499 152.218 14.4698C152.218 13.3898 152 12.5521 151.565 11.9569C151.129 11.3555 150.469 11.0548 149.586 11.0548C148.69 11.0548 148.021 11.3555 147.579 11.9569C147.143 12.5521 146.925 13.3898 146.925 14.4698C146.925 15.5499 147.143 16.3875 147.579 16.9828C148.021 17.578 148.69 17.8757 149.586 17.8757Z" fill="white"/>
<path d="M161.475 12.0582C161.181 11.6716 160.862 11.4016 160.518 11.2482C160.181 11.0948 159.8 11.0181 159.377 11.0181C158.554 11.0181 157.916 11.3157 157.462 11.911C157.014 12.5001 156.79 13.3623 156.79 14.4975C156.79 15.0928 156.839 15.6021 156.937 16.0256C157.042 16.4429 157.189 16.7865 157.379 17.0565C157.576 17.3204 157.815 17.5168 158.097 17.6456C158.379 17.7684 158.699 17.8297 159.054 17.8297C159.576 17.8297 160.027 17.7131 160.408 17.4799C160.788 17.2467 161.144 16.9184 161.475 16.495V12.0582ZM163.279 5.55957V19.146H162.193C161.942 19.146 161.785 19.0264 161.724 18.787L161.567 17.7101C161.168 18.1826 160.714 18.5631 160.205 18.8515C159.702 19.1338 159.119 19.2749 158.456 19.2749C157.922 19.2749 157.437 19.1706 157.002 18.9619C156.572 18.7533 156.204 18.4495 155.897 18.0506C155.59 17.6456 155.354 17.1455 155.188 16.5502C155.023 15.955 154.94 15.2708 154.94 14.4975C154.94 13.8041 155.032 13.1598 155.216 12.5645C155.4 11.9693 155.667 11.4538 156.017 11.0181C156.367 10.5824 156.79 10.2418 157.287 9.99634C157.784 9.74474 158.346 9.61894 158.972 9.61894C159.536 9.61894 160.015 9.71099 160.408 9.89509C160.806 10.0792 161.162 10.34 161.475 10.6775V5.55957H163.279Z" fill="white"/>
<path d="M172.002 13.4297C172.002 13.0738 171.95 12.7454 171.845 12.4447C171.747 12.1441 171.6 11.8832 171.404 11.6623C171.207 11.4414 170.968 11.2696 170.686 11.1469C170.403 11.0241 170.078 10.9628 169.71 10.9628C168.955 10.9628 168.36 11.1806 167.924 11.6163C167.495 12.052 167.222 12.6565 167.105 13.4297H172.002ZM173.484 17.8112C173.263 18.069 173.008 18.2929 172.72 18.4832C172.432 18.6673 172.125 18.8176 171.799 18.9342C171.474 19.0508 171.137 19.1367 170.787 19.192C170.443 19.2472 170.103 19.2748 169.765 19.2748C169.121 19.2748 168.523 19.1674 167.97 18.9526C167.424 18.7317 166.949 18.4126 166.544 17.9953C166.145 17.5719 165.832 17.0503 165.605 16.4305C165.384 15.8045 165.273 15.0866 165.273 14.2765C165.273 13.626 165.374 13.0216 165.577 12.4632C165.78 11.8986 166.068 11.4077 166.442 10.9904C166.823 10.5731 167.286 10.2448 167.832 10.0055C168.378 9.76615 168.992 9.64648 169.673 9.64648C170.244 9.64648 170.769 9.7416 171.247 9.93184C171.732 10.1159 172.149 10.386 172.499 10.7418C172.849 11.0978 173.122 11.5365 173.318 12.0581C173.521 12.5798 173.622 13.175 173.622 13.8439C173.622 14.12 173.591 14.3072 173.53 14.4054C173.469 14.4974 173.355 14.5435 173.189 14.5435H167.059C167.077 15.1019 167.157 15.5898 167.298 16.0071C167.439 16.4182 167.633 16.7619 167.878 17.038C168.13 17.3142 168.427 17.5197 168.771 17.6547C169.115 17.7897 169.498 17.8572 169.922 17.8572C170.321 17.8572 170.664 17.8112 170.953 17.7192C171.247 17.6271 171.499 17.5289 171.707 17.4246C171.922 17.3142 172.1 17.2129 172.241 17.1208C172.389 17.0288 172.517 16.9828 172.628 16.9828C172.775 16.9828 172.889 17.038 172.968 17.1485L173.484 17.8112Z" fill="white"/>
<mask id="mask1_21_130" style="mask-type:alpha" maskUnits="userSpaceOnUse" x="0" y="1" width="23" height="23">
<path fill-rule="evenodd" clip-rule="evenodd" d="M15.6814 23.3044C16.0297 23.4401 16.4268 23.4314 16.7784 23.2622L21.3313 21.0715C21.8097 20.8413 22.1139 20.3571 22.1139 19.8259V4.97105C22.1139 4.43987 21.8097 3.95568 21.3313 3.72548L16.7784 1.53463C16.317 1.31264 15.7771 1.36701 15.3722 1.66139C15.3143 1.70344 15.2592 1.75039 15.2075 1.80214L6.49156 9.75391L2.69507 6.87204C2.34164 6.60377 1.84731 6.62575 1.51908 6.92434L0.301419 8.03198C-0.100077 8.39719 -0.100537 9.02884 0.300424 9.39467L3.59287 12.3984L0.300424 15.4022C-0.100537 15.768 -0.100077 16.3997 0.301419 16.7649L1.51908 17.8725C1.84731 18.1711 2.34164 18.1931 2.69507 17.9248L6.49156 15.043L15.2075 22.9947C15.3454 23.1327 15.5073 23.2366 15.6814 23.3044ZM16.5888 7.37829L9.97539 12.3984L16.5888 17.4186V7.37829Z" fill="white"/>
</mask>
<g mask="url(#mask1_21_130)">
<path d="M21.3312 3.7287L16.7747 1.53485C16.2473 1.28091 15.617 1.38802 15.2031 1.80194L0.286936 15.402C-0.114271 15.7678 -0.113809 16.3995 0.287931 16.7647L1.50633 17.8723C1.83477 18.1709 2.3294 18.1929 2.68303 17.9246L20.6455 4.29785C21.2481 3.84069 22.1137 4.27049 22.1137 5.0269V4.97401C22.1137 4.44305 21.8095 3.95904 21.3312 3.7287Z" fill="white"/>
<g filter="url(#filter0_d_21_130)">
<path d="M21.3312 21.0678L16.7747 23.2617C16.2473 23.5157 15.617 23.4085 15.2031 22.9946L0.286936 9.39453C-0.114271 9.02872 -0.113809 8.39706 0.287931 8.03185L1.50633 6.9242C1.83477 6.62562 2.3294 6.60364 2.68303 6.8719L20.6455 20.4987C21.2481 20.9558 22.1137 20.526 22.1137 19.7697V19.8225C22.1137 20.3535 21.8095 20.8375 21.3312 21.0678Z" fill="white"/>
</g>
<g filter="url(#filter1_d_21_130)">
<path d="M16.7769 23.2622C16.2493 23.516 15.619 23.4087 15.2051 22.9947C15.7151 23.5048 16.5872 23.1435 16.5872 22.4222V2.37463C16.5872 1.65333 15.7151 1.2921 15.2051 1.80214C15.619 1.38819 16.2493 1.28092 16.7769 1.53463L21.3326 3.72548C21.8113 3.95569 22.1157 4.43988 22.1157 4.97105V19.8259C22.1157 20.3571 21.8113 20.8413 21.3325 21.0715L16.7769 23.2622Z" fill="white"/>
</g>
<g style="mix-blend-mode:overlay" opacity="0.25">
<path fill-rule="evenodd" clip-rule="evenodd" d="M15.6677 23.3044C16.016 23.4401 16.4132 23.4314 16.7647 23.2622L21.3176 21.0715C21.796 20.8413 22.1002 20.3571 22.1002 19.8259V4.97106C22.1002 4.43986 21.796 3.95568 21.3176 3.72547L16.7647 1.53463C16.3034 1.31264 15.7634 1.36701 15.3585 1.66139C15.3007 1.70344 15.2455 1.75039 15.1938 1.80214L6.47789 9.7539L2.68139 6.87205C2.32799 6.60376 1.83364 6.62577 1.50541 6.92433L0.287748 8.03197C-0.113749 8.39721 -0.114209 9.02885 0.286753 9.39466L3.57919 12.3984L0.286753 15.4022C-0.114209 15.768 -0.113749 16.3997 0.287748 16.7649L1.50541 17.8725C1.83364 18.1711 2.32799 18.1931 2.68139 17.9248L6.47789 15.043L15.1938 22.9947C15.3317 23.1327 15.4936 23.2366 15.6677 23.3044ZM16.5751 7.37831L9.96171 12.3984L16.5751 17.4186V7.37831Z" fill="white"/>
</g>
</g>
</g>
</g>
<defs>
<filter id="filter0_d_21_130" x="-3.34701" y="3.35123" width="28.794" height="23.3802" filterUnits="userSpaceOnUse" color-interpolation-filters="sRGB">
<feFlood flood-opacity="0" result="BackgroundImageFix"/>
<feColorMatrix in="SourceAlpha" type="matrix" values="0 0 0 0 0 0 0 0 0 0 0 0 0 0 0 0 0 0 127 0" result="hardAlpha"/>
<feOffset/>
<feGaussianBlur stdDeviation="1.66667"/>
<feColorMatrix type="matrix" values="0 0 0 0 0 0 0 0 0 0 0 0 0 0 0 0 0 0 0.25 0"/>
<feBlend mode="overlay" in2="BackgroundImageFix" result="effect1_dropShadow_21_130"/>
<feBlend mode="normal" in="SourceGraphic" in2="effect1_dropShadow_21_130" result="shape"/>
</filter>
<filter id="filter1_d_21_130" x="11.8717" y="-1.9349" width="13.5773" height="28.6667" filterUnits="userSpaceOnUse" color-interpolation-filters="sRGB">
<feFlood flood-opacity="0" result="BackgroundImageFix"/>
<feColorMatrix in="SourceAlpha" type="matrix" values="0 0 0 0 0 0 0 0 0 0 0 0 0 0 0 0 0 0 127 0" result="hardAlpha"/>
<feOffset/>
<feGaussianBlur stdDeviation="1.66667"/>
<feColorMatrix type="matrix" values="0 0 0 0 0 0 0 0 0 0 0 0 0 0 0 0 0 0 0.25 0"/>
<feBlend mode="overlay" in2="BackgroundImageFix" result="effect1_dropShadow_21_130"/>
<feBlend mode="normal" in="SourceGraphic" in2="effect1_dropShadow_21_130" result="shape"/>
</filter>
<clipPath id="clip0_21_130">
<rect width="174" height="23" fill="white" transform="translate(0 0.5)"/>
</clipPath>
</defs>
</svg>
