<svg width="136" height="23" viewBox="0 0 136 23" fill="none" xmlns="http://www.w3.org/2000/svg">
<g clip-path="url(#clip0_21_193)">
<mask id="mask0_21_193" style="mask-type:luminance" maskUnits="userSpaceOnUse" x="0" y="0" width="136" height="23">
<path d="M136 0.5H0V22.5H136V0.5Z" fill="white"/>
</mask>
<g mask="url(#mask0_21_193)">
<path d="M84.186 4.50006C82.0777 4.50006 81.0529 5.63771 81.0529 7.31344V8.29755H79.4574V9.73165H81.0592V17.3133H82.7128V9.73165H85.2529V8.29755H82.7128L82.6975 7.35857C82.6975 6.54729 83.2211 5.9877 84.2637 5.9877C84.6209 5.98639 84.9767 6.01718 85.3268 6.07821V4.6436C84.9557 4.54668 84.5716 4.4981 84.186 4.50006ZM34.7222 4.83455C34.4444 4.84383 34.1791 4.94867 33.9812 5.13056C33.7542 5.33762 33.6374 5.62554 33.6596 5.9181C33.6596 6.30497 33.8844 6.66279 34.2505 6.8558C34.616 7.04965 35.0669 7.04965 35.4324 6.8558C35.7978 6.66279 36.0237 6.30497 36.0229 5.9181C36.0458 5.62554 35.9288 5.33762 35.7019 5.13056C35.4757 4.92268 35.1612 4.81554 34.8416 4.8366C34.8016 4.83399 34.7618 4.83324 34.7222 4.83455ZM62.9667 5.28736C59.9521 5.28736 58.417 6.65193 58.417 8.4959C58.417 10.443 59.7217 11.3626 62.6312 12.0122C65.0925 12.5532 65.8017 13.1104 65.8017 14.1576C65.8017 15.2047 65.0653 15.9078 63.1162 15.9078C61.4045 15.9078 59.5537 15.4935 58.3523 14.9161V16.574C59.3569 17.0431 60.5183 17.4936 63.0202 17.4936C66.2312 17.4936 67.57 16.1041 67.5831 14.0492C67.5831 11.914 66.0462 11.1108 63.3093 10.4792C61.0267 9.95719 60.1984 9.46919 60.1984 8.4959C60.1984 7.41426 61.2033 6.87314 62.8969 6.87314C64.303 6.84181 65.6932 7.15274 66.9252 7.7749V6.15164C66.039 5.69721 64.8379 5.28736 62.9667 5.28736ZM29.8401 5.46939L29.8446 13.8152C29.8446 14.9977 29.3272 15.8173 27.8306 15.8173C27.2041 15.8217 26.5832 15.7173 26 15.5101V17.0874C26.684 17.3011 27.4032 17.4049 28.1258 17.3955C30.5697 17.3955 31.6126 15.8892 31.6126 13.7068V5.46939H29.8401ZM87.7666 6.38542V8.3052H86.1704V9.74006H87.7728V14.4979C87.7728 16.1762 88.7982 17.3113 90.906 17.3113C91.2923 17.3133 91.6763 17.2647 92.0473 17.1678V15.672C91.6985 15.7465 91.3423 15.7893 90.9844 15.7989C89.9411 15.7989 89.4288 15.2583 89.4198 14.4648V9.73165H92.0384V8.29755H89.4198V6.38542H87.7666ZM131.748 8.11092C128.754 8.11092 127.101 10.0572 127.101 12.7808C127.101 15.547 128.714 17.4936 132.398 17.4936C133.402 17.4936 134.645 17.354 135.452 16.9551V15.5203C134.492 15.8421 133.479 16.0074 132.458 16.008C130.135 16.008 129.052 15.0162 128.815 13.4832H136V12.7808C136 10.0408 134.781 8.11092 131.748 8.11092ZM48.172 8.11731C45.415 8.11731 44.0368 10.2626 44.0368 12.8051C44.0368 15.4566 45.3571 17.4936 47.9752 17.4936C49.4905 17.4936 50.672 16.8812 51.3033 15.6906L51.3052 17.3133H52.9996V8.29757H51.3052V9.88335C50.7122 8.71115 49.6088 8.11731 48.172 8.11731ZM73.7532 8.11731C70.7991 8.11731 69.0669 10.0824 69.0669 12.7867C69.0669 15.4917 70.8192 17.5 73.7532 17.5C76.6872 17.5 78.4007 15.4917 78.4007 12.7867C78.4007 10.0824 76.7066 8.11731 73.7532 8.11731ZM113.906 8.11731C111.149 8.11731 109.771 10.2626 109.771 12.8051C109.771 15.4566 111.091 17.4936 113.709 17.4936C115.225 17.4936 116.406 16.8812 117.037 15.6906L117.039 17.3133H118.734V8.29757H117.039V9.88335C116.446 8.71115 115.343 8.11731 113.906 8.11731ZM43.0186 8.15989C41.3247 8.15781 40.4163 8.88599 39.8813 9.88335V8.29757H38.2274V17.3194H39.8813V11.9918C39.8813 10.0822 41.2016 9.47988 43.3677 9.6845V8.17009C43.2476 8.1633 43.1314 8.16002 43.0186 8.15989ZM126.082 8.15989C124.388 8.15781 123.48 8.88599 122.945 9.88335V8.29757H121.291V17.3194H122.945V11.9918C122.945 10.0822 124.265 9.47988 126.432 9.6845V8.17009C126.312 8.1633 126.195 8.16002 126.082 8.15989ZM92.5215 8.29757L96.1444 17.3133H98.3106L100.027 12.9512L100.923 10.174L101.817 12.9512L103.512 17.3133H105.678L109.301 8.29757H107.43L104.592 15.9423L101.717 8.29757H100.101L97.2274 15.9423L94.3925 8.29757H92.5215ZM33.9757 8.29965V17.3152H35.669V8.29965H33.9757ZM131.665 9.53286C133.357 9.53286 134.185 10.4895 134.284 12.1657H128.795V12.1558C128.972 10.5923 129.878 9.5247 131.665 9.53286ZM48.6176 9.55147C50.0635 9.55147 51.3033 10.4348 51.3033 12.4367V13.1659C51.3033 15.1669 49.9457 16.0506 48.4299 16.0514C46.675 16.0514 45.7309 14.969 45.7219 12.7967C45.7219 10.7049 46.7062 9.55147 48.6176 9.55147ZM114.352 9.55147C115.798 9.55147 117.037 10.4348 117.037 12.4367V13.1659C117.037 15.1667 115.68 16.0503 114.164 16.0514C112.409 16.0514 111.458 14.9691 111.458 12.8051C111.458 10.7133 112.449 9.56795 114.352 9.55147ZM73.7532 9.56778C75.8408 9.56778 76.747 11.0742 76.747 12.7868C76.747 14.5 75.8588 16.0514 73.7532 16.0514C71.6476 16.0514 70.7208 14.5 70.7208 12.7868H70.7292C70.7292 11.0742 71.665 9.56778 73.7532 9.56778Z" fill="white"/>
<path d="M20.4268 10.9199L11.5082 2.00119L10.6438 1.13745L0.86142 10.9199C0.541636 11.2406 0.541636 11.7597 0.86142 12.0797L6.99504 18.2131L10.6438 21.8627L20.4268 12.0797C20.7469 11.7597 20.7469 11.2406 20.4268 10.9199ZM10.6438 14.5634L7.58038 11.5002L10.6438 8.43585L13.7079 11.5002L10.6438 14.5634Z" fill="white"/>
<path d="M13.7166 11.4915L10.644 14.5634C11.6123 15.5308 12.1569 16.8439 12.1569 18.2131C12.1569 19.5821 11.6123 20.8944 10.644 21.8627L17.3655 15.1411L13.7166 11.4915Z" fill="white"/>
</g>
</g>
<defs>
<clipPath id="clip0_21_193">
<rect width="136" height="22" fill="white" transform="translate(0 0.5)"/>
</clipPath>
</defs>
</svg>
