<svg width="114" height="26" viewBox="0 0 114 26" fill="none" xmlns="http://www.w3.org/2000/svg">
<path d="M33.0879 7.07597C34.5599 7.07597 35.6319 7.39597 36.3039 8.03597C36.9866 8.6653 37.3279 9.53464 37.3279 10.644C37.3279 11.1453 37.2532 11.6253 37.1039 12.084C36.9546 12.532 36.7039 12.9373 36.3519 13.3C36.0106 13.652 35.5572 13.9293 34.9919 14.132C34.4266 14.3347 33.7279 14.436 32.8959 14.436H31.8559V18.5H29.4399V7.07597H33.0879ZM32.9599 9.05997H31.8559V12.452H32.6559C33.1146 12.452 33.5092 12.3933 33.8399 12.276C34.1706 12.1587 34.4266 11.972 34.6079 11.716C34.7892 11.46 34.8799 11.1293 34.8799 10.724C34.8799 10.1586 34.7252 9.74264 34.4159 9.47597C34.1066 9.19864 33.6212 9.05997 32.9599 9.05997ZM41.6788 8.81997C41.6788 9.24664 41.6628 9.6573 41.6308 10.052C41.6094 10.4466 41.5881 10.724 41.5668 10.884H41.6948C41.8868 10.5853 42.1108 10.3453 42.3668 10.164C42.6228 9.97197 42.9054 9.8333 43.2148 9.74797C43.5348 9.65197 43.8708 9.60397 44.2228 9.60397C44.8521 9.60397 45.4014 9.71597 45.8708 9.93997C46.3401 10.164 46.7028 10.5107 46.9588 10.98C47.2254 11.4493 47.3588 12.0573 47.3588 12.804V18.5H44.9748V13.396C44.9748 12.7667 44.8574 12.2973 44.6228 11.988C44.3988 11.668 44.0468 11.508 43.5668 11.508C43.0868 11.508 42.7081 11.62 42.4308 11.844C42.1641 12.068 41.9721 12.3933 41.8548 12.82C41.7374 13.2467 41.6788 13.7693 41.6788 14.388V18.5H39.2948V6.33997H41.6788V8.81997ZM57.7464 14.116C57.7464 14.8413 57.6451 15.4867 57.4424 16.052C57.2504 16.6173 56.9677 17.0973 56.5944 17.492C56.2317 17.876 55.7891 18.1693 55.2664 18.372C54.7437 18.564 54.1517 18.66 53.4904 18.66C52.8824 18.66 52.3171 18.564 51.7944 18.372C51.2824 18.1693 50.8397 17.876 50.4664 17.492C50.0931 17.0973 49.7997 16.6173 49.5864 16.052C49.3837 15.4867 49.2824 14.8413 49.2824 14.116C49.2824 13.1453 49.4531 12.3293 49.7944 11.668C50.1357 10.996 50.6264 10.484 51.2664 10.132C51.9064 9.77997 52.6637 9.60397 53.5384 9.60397C54.3597 9.60397 55.0851 9.77997 55.7144 10.132C56.3437 10.484 56.8397 10.996 57.2024 11.668C57.5651 12.3293 57.7464 13.1453 57.7464 14.116ZM51.7144 14.116C51.7144 14.692 51.7731 15.1773 51.8904 15.572C52.0184 15.956 52.2157 16.2493 52.4824 16.452C52.7491 16.644 53.0957 16.74 53.5224 16.74C53.9491 16.74 54.2904 16.644 54.5464 16.452C54.8131 16.2493 55.0051 15.956 55.1224 15.572C55.2504 15.1773 55.3144 14.692 55.3144 14.116C55.3144 13.54 55.2504 13.06 55.1224 12.676C55.0051 12.292 54.8131 12.004 54.5464 11.812C54.2797 11.62 53.9331 11.524 53.5064 11.524C52.8771 11.524 52.4184 11.7427 52.1304 12.18C51.8531 12.6067 51.7144 13.252 51.7144 14.116ZM63.3967 16.756C63.6633 16.756 63.9193 16.7293 64.1647 16.676C64.41 16.6227 64.6553 16.5587 64.9007 16.484V18.26C64.6447 18.3667 64.3247 18.4573 63.9407 18.532C63.5673 18.6173 63.1567 18.66 62.7087 18.66C62.186 18.66 61.7167 18.5747 61.3007 18.404C60.8953 18.2333 60.57 17.94 60.3247 17.524C60.09 17.0973 59.9727 16.5107 59.9727 15.764V11.556H58.8367V10.548L60.1487 9.74797L60.8367 7.90797H62.3567V9.76397H64.8047V11.556H62.3567V15.764C62.3567 16.0947 62.4527 16.3453 62.6447 16.516C62.8367 16.676 63.0873 16.756 63.3967 16.756ZM74.5902 14.116C74.5902 14.8413 74.4888 15.4867 74.2862 16.052C74.0942 16.6173 73.8115 17.0973 73.4382 17.492C73.0755 17.876 72.6328 18.1693 72.1102 18.372C71.5875 18.564 70.9955 18.66 70.3342 18.66C69.7262 18.66 69.1608 18.564 68.6382 18.372C68.1262 18.1693 67.6835 17.876 67.3102 17.492C66.9368 17.0973 66.6435 16.6173 66.4302 16.052C66.2275 15.4867 66.1262 14.8413 66.1262 14.116C66.1262 13.1453 66.2968 12.3293 66.6382 11.668C66.9795 10.996 67.4702 10.484 68.1102 10.132C68.7502 9.77997 69.5075 9.60397 70.3822 9.60397C71.2035 9.60397 71.9288 9.77997 72.5582 10.132C73.1875 10.484 73.6835 10.996 74.0462 11.668C74.4088 12.3293 74.5902 13.1453 74.5902 14.116ZM68.5582 14.116C68.5582 14.692 68.6168 15.1773 68.7342 15.572C68.8622 15.956 69.0595 16.2493 69.3262 16.452C69.5928 16.644 69.9395 16.74 70.3662 16.74C70.7928 16.74 71.1342 16.644 71.3902 16.452C71.6568 16.2493 71.8488 15.956 71.9662 15.572C72.0942 15.1773 72.1582 14.692 72.1582 14.116C72.1582 13.54 72.0942 13.06 71.9662 12.676C71.8488 12.292 71.6568 12.004 71.3902 11.812C71.1235 11.62 70.7768 11.524 70.3502 11.524C69.7208 11.524 69.2622 11.7427 68.9742 12.18C68.6968 12.6067 68.5582 13.252 68.5582 14.116ZM82.6564 15.908C82.6564 16.4947 82.5177 16.996 82.2404 17.412C81.9631 17.8173 81.5471 18.1267 80.9924 18.34C80.4377 18.5533 79.7497 18.66 78.9284 18.66C78.3204 18.66 77.7977 18.6173 77.3604 18.532C76.9231 18.4573 76.4857 18.3293 76.0484 18.148V16.18C76.5177 16.3933 77.0244 16.5693 77.5684 16.708C78.1124 16.8467 78.5924 16.916 79.0084 16.916C79.4777 16.916 79.8084 16.8467 80.0004 16.708C80.2031 16.5693 80.3044 16.388 80.3044 16.164C80.3044 16.0147 80.2617 15.8813 80.1764 15.764C80.1017 15.6467 79.9311 15.5133 79.6644 15.364C79.3977 15.2147 78.9817 15.0227 78.4164 14.788C77.8724 14.5533 77.4244 14.324 77.0724 14.1C76.7204 13.8653 76.4591 13.588 76.2884 13.268C76.1177 12.9373 76.0324 12.5267 76.0324 12.036C76.0324 11.2253 76.3471 10.6173 76.9764 10.212C77.6057 9.80664 78.4431 9.60397 79.4884 9.60397C80.0324 9.60397 80.5497 9.6573 81.0404 9.76397C81.5311 9.87064 82.0377 10.0466 82.5604 10.292L81.8404 12.004C81.5524 11.876 81.2751 11.764 81.0084 11.668C80.7417 11.572 80.4804 11.4973 80.2244 11.444C79.9791 11.3907 79.7231 11.364 79.4564 11.364C79.1044 11.364 78.8377 11.412 78.6564 11.508C78.4857 11.604 78.4004 11.748 78.4004 11.94C78.4004 12.0787 78.4431 12.2067 78.5284 12.324C78.6244 12.4307 78.8004 12.548 79.0564 12.676C79.3231 12.804 79.7124 12.9747 80.2244 13.188C80.7257 13.3907 81.1577 13.604 81.5204 13.828C81.8831 14.0413 82.1604 14.3133 82.3524 14.644C82.5551 14.964 82.6564 15.3853 82.6564 15.908ZM86.8975 8.81997C86.8975 9.24664 86.8815 9.6573 86.8495 10.052C86.8282 10.4466 86.8069 10.724 86.7855 10.884H86.9135C87.1055 10.5853 87.3295 10.3453 87.5855 10.164C87.8415 9.97197 88.1242 9.8333 88.4335 9.74797C88.7535 9.65197 89.0895 9.60397 89.4415 9.60397C90.0709 9.60397 90.6202 9.71597 91.0895 9.93997C91.5589 10.164 91.9215 10.5107 92.1775 10.98C92.4442 11.4493 92.5775 12.0573 92.5775 12.804V18.5H90.1935V13.396C90.1935 12.7667 90.0762 12.2973 89.8415 11.988C89.6175 11.668 89.2655 11.508 88.7855 11.508C88.3055 11.508 87.9269 11.62 87.6495 11.844C87.3829 12.068 87.1909 12.3933 87.0735 12.82C86.9562 13.2467 86.8975 13.7693 86.8975 14.388V18.5H84.5135V6.33997H86.8975V8.81997ZM102.965 14.116C102.965 14.8413 102.864 15.4867 102.661 16.052C102.469 16.6173 102.187 17.0973 101.813 17.492C101.451 17.876 101.008 18.1693 100.485 18.372C99.9625 18.564 99.3705 18.66 98.7092 18.66C98.1012 18.66 97.5358 18.564 97.0132 18.372C96.5012 18.1693 96.0585 17.876 95.6852 17.492C95.3118 17.0973 95.0185 16.6173 94.8052 16.052C94.6025 15.4867 94.5012 14.8413 94.5012 14.116C94.5012 13.1453 94.6718 12.3293 95.0132 11.668C95.3545 10.996 95.8452 10.484 96.4852 10.132C97.1252 9.77997 97.8825 9.60397 98.7572 9.60397C99.5785 9.60397 100.304 9.77997 100.933 10.132C101.563 10.484 102.059 10.996 102.421 11.668C102.784 12.3293 102.965 13.1453 102.965 14.116ZM96.9332 14.116C96.9332 14.692 96.9918 15.1773 97.1092 15.572C97.2372 15.956 97.4345 16.2493 97.7012 16.452C97.9678 16.644 98.3145 16.74 98.7412 16.74C99.1678 16.74 99.5092 16.644 99.7652 16.452C100.032 16.2493 100.224 15.956 100.341 15.572C100.469 15.1773 100.533 14.692 100.533 14.116C100.533 13.54 100.469 13.06 100.341 12.676C100.224 12.292 100.032 12.004 99.7652 11.812C99.4985 11.62 99.1518 11.524 98.7252 11.524C98.0958 11.524 97.6372 11.7427 97.3492 12.18C97.0718 12.6067 96.9332 13.252 96.9332 14.116ZM109.8 9.60397C110.781 9.60397 111.576 9.98797 112.184 10.756C112.792 11.5133 113.095 12.6333 113.095 14.116C113.095 15.108 112.952 15.9453 112.664 16.628C112.376 17.3 111.981 17.8067 111.48 18.148C110.978 18.4893 110.397 18.66 109.736 18.66C109.32 18.66 108.957 18.6067 108.648 18.5C108.349 18.3933 108.093 18.2547 107.88 18.084C107.666 17.9133 107.48 17.732 107.32 17.54H107.192C107.234 17.7427 107.266 17.956 107.288 18.18C107.309 18.3933 107.32 18.6067 107.32 18.82V22.34H104.936V9.76397H106.872L107.208 10.9H107.32C107.48 10.6653 107.672 10.452 107.896 10.26C108.12 10.0573 108.386 9.8973 108.696 9.77997C109.016 9.66264 109.384 9.60397 109.8 9.60397ZM109.032 11.508C108.616 11.508 108.285 11.5933 108.04 11.764C107.794 11.9347 107.613 12.196 107.496 12.548C107.389 12.8893 107.33 13.3213 107.32 13.844V14.1C107.32 14.6653 107.373 15.1453 107.48 15.54C107.586 15.924 107.768 16.2173 108.024 16.42C108.28 16.6227 108.626 16.724 109.064 16.724C109.426 16.724 109.725 16.6227 109.96 16.42C110.194 16.2173 110.37 15.9187 110.488 15.524C110.605 15.1293 110.664 14.6493 110.664 14.084C110.664 13.2307 110.53 12.5907 110.264 12.164C110.008 11.7267 109.597 11.508 109.032 11.508Z" fill="white"/>
<path d="M18.3333 1.5H3.66667C1.65 1.5 0 3.15 0 5.16667V19.8333C0 21.85 1.65 23.5 3.66667 23.5H18.3333C20.35 23.5 22 21.85 22 19.8333V5.16667C22 3.15 20.35 1.5 18.3333 1.5ZM10.5406 12.6947C9.77698 13.4583 8.57688 13.8169 7.22107 13.8169C6.86261 13.8169 6.53536 13.8012 6.28596 13.7544V17.7129H4.38479V7.34928C5.07049 7.22464 6.02119 7.13104 7.31453 7.13104C8.71728 7.13104 9.74585 7.42716 10.416 7.98827C11.0394 8.50262 11.4445 9.32854 11.4445 10.3104C11.4445 11.3078 11.1328 12.1337 10.5406 12.6947ZM14.5295 17.8689C13.61 17.8689 12.784 17.6507 12.223 17.3389L12.597 15.9519C13.0333 16.2169 13.8594 16.4975 14.5451 16.4975C15.3865 16.4975 15.7607 16.1546 15.7607 15.6558C15.7607 15.1417 15.449 14.8766 14.5139 14.5494C13.0333 14.035 12.4101 13.2247 12.4256 12.3363C12.4256 10.9961 13.5321 9.95194 15.2931 9.95194C16.1347 9.95194 16.8672 10.1702 17.3035 10.4038L16.9295 11.7597C16.6022 11.5728 15.9943 11.3233 15.3242 11.3233C14.6385 11.3233 14.2645 11.6506 14.2645 12.1181C14.2645 12.6013 14.623 12.8351 15.5892 13.178C16.9606 13.6766 17.5996 14.3779 17.6152 15.5001C17.6152 16.8715 16.5399 17.8689 14.5295 17.8689ZM9.52757 10.3882C9.52757 11.6195 8.65477 12.3207 7.22107 12.3207C6.83148 12.3207 6.51978 12.3052 6.28596 12.2429V8.68955C6.48865 8.64284 6.86265 8.59608 7.39259 8.59608C8.71728 8.59608 9.52757 9.21949 9.52757 10.3882Z" fill="white"/>
</svg>
