<svg width="82" height="23" viewBox="0 0 82 23" fill="none" xmlns="http://www.w3.org/2000/svg">
<g clip-path="url(#clip0_21_166)">
<mask id="mask0_21_166" style="mask-type:luminance" maskUnits="userSpaceOnUse" x="0" y="0" width="82" height="23">
<path d="M82 0.5H0V22.5002H82V0.5Z" fill="white"/>
</mask>
<g mask="url(#mask0_21_166)">
<path d="M28.0003 17.0434L28.9579 14.7415C30.0064 15.5401 31.374 15.9628 32.7419 15.9628C33.7449 15.9628 34.3832 15.5636 34.3832 14.953C34.3603 13.2617 28.3423 14.5771 28.2965 10.325C28.2736 8.16397 30.143 6.49622 32.7876 6.49622C34.3603 6.49622 35.9335 6.89567 37.0503 7.81192L36.1555 10.1629C35.1279 9.48337 33.8587 9.00962 32.6507 9.00962C31.8301 9.00962 31.2828 9.40873 31.2828 9.92584C31.3057 11.5936 37.3697 10.6774 37.4381 14.7415C37.4381 16.9496 35.6141 18.5 33.0152 18.5C31.1006 18.5 29.3457 18.0303 28.0003 17.0434ZM66.1306 13.908C65.8888 14.3497 65.5372 14.7173 65.1118 14.9732C64.6864 15.229 64.2025 15.3638 63.7096 15.3639C62.1737 15.3639 60.9287 14.0808 60.9287 12.4981C60.9287 10.9154 62.1737 9.63234 63.7096 9.63234C64.2025 9.63234 64.6864 9.76727 65.1118 10.0231C65.5372 10.2789 65.8888 10.6466 66.1306 11.0883L68.7929 9.56843C67.7957 7.7356 65.8936 6.49622 63.7096 6.49622C60.4929 6.49622 57.8852 9.1831 57.8852 12.4981C57.8852 15.8128 60.4929 18.5 63.7096 18.5C65.8936 18.5 67.7957 17.2606 68.7929 15.4278L66.1306 13.908ZM39.1656 18.265H42.4938V1.5H39.1659L39.1656 18.265ZM70.4737 1.5V18.265H73.8019V13.2422L77.7458 18.265H82L76.9846 12.298L81.6351 6.73024H77.5633L73.8019 11.3593V1.5H70.4737ZM52.7477 6.73091V8.0937C52.2007 7.1539 50.8557 6.49622 49.4423 6.49622C46.5244 6.49622 44.222 9.15082 44.222 12.4864C44.222 15.8219 46.5244 18.5 49.4423 18.5C50.8557 18.5 52.2007 17.8423 52.7477 16.9026V18.265H56.0759V6.73091H52.7477ZM52.7477 13.9312C52.269 14.7533 51.2659 15.3636 50.1491 15.3636C48.6129 15.3636 47.3679 14.0808 47.3679 12.4981C47.3679 10.9154 48.6129 9.63234 50.1491 9.63234C51.2659 9.63234 52.269 10.2665 52.7477 11.1118V13.9312Z" fill="white"/>
<path d="M8.03073 0.554443C6.8211 0.554443 5.84063 1.53711 5.84063 2.74895C5.84035 3.03684 5.89677 3.32198 6.00667 3.58807C6.11658 3.85417 6.27781 4.096 6.48119 4.29978C6.68456 4.50356 6.92607 4.66529 7.19194 4.77573C7.45781 4.88617 7.74284 4.94316 8.03073 4.94345H10.2212V2.74895C10.2217 2.16748 9.99117 1.60963 9.58038 1.19809C9.1696 0.786548 8.6122 0.555027 8.03073 0.554443ZM8.03073 6.40645H2.1901C0.980469 6.40645 0 7.3891 0 8.60131C0 9.81313 0.980469 10.7958 2.1901 10.7958H8.0311C9.24035 10.7958 10.2212 9.81313 10.2212 8.60131C10.2212 7.3891 9.24035 6.40645 8.03073 6.40645Z" fill="white"/>
<path d="M21.9024 8.60131C21.9024 7.3891 20.9215 6.40645 19.7119 6.40645C18.5022 6.40645 17.5218 7.3891 17.5218 8.60131V10.7958H19.7119C20.2934 10.7952 20.8508 10.5637 21.2615 10.1522C21.6723 9.74061 21.9028 9.18278 21.9024 8.60131ZM16.0617 8.60131V2.74895C16.0621 2.16748 15.8317 1.60963 15.4209 1.19809C15.0101 0.786548 14.4527 0.555027 13.8712 0.554443C12.6616 0.554443 11.6812 1.53711 11.6812 2.74895V8.60095C11.6812 9.81348 12.6616 10.7962 13.8712 10.7962C14.4527 10.7955 15.0101 10.564 15.4209 10.1525C15.8317 9.74096 16.0621 9.18278 16.0617 8.60131Z" fill="white"/>
<path d="M13.8712 22.5002C14.4527 22.4997 15.0101 22.2681 15.4209 21.8565C15.8317 21.4451 16.0621 20.8871 16.0617 20.3057C16.0621 19.7242 15.8317 19.1664 15.4209 18.7548C15.0101 18.3433 14.4527 18.1118 13.8712 18.1112H11.6812V20.3057C11.6812 21.5176 12.6616 22.5002 13.8712 22.5002ZM13.8712 16.6482H19.7122C20.9215 16.6482 21.9024 15.6656 21.9024 14.4534C21.9028 13.8719 21.6723 13.314 21.2615 12.9025C20.8508 12.491 20.2934 12.2594 19.7119 12.2588H13.8712C12.6616 12.2588 11.6812 13.2415 11.6812 14.4534C11.6808 14.7412 11.7373 15.0263 11.8472 15.2925C11.957 15.5586 12.1183 15.8004 12.3217 16.0042C12.5251 16.2079 12.7665 16.3697 13.0325 16.4801C13.2983 16.5905 13.5834 16.648 13.8712 16.6482Z" fill="white"/>
<path d="M1.10507e-06 14.4534C-0.000287948 14.7412 0.0561314 15.0263 0.166037 15.2925C0.275944 15.5586 0.437185 15.8004 0.640555 16.0042C0.843924 16.2079 1.08544 16.3697 1.35131 16.4801C1.61718 16.5905 1.90221 16.6476 2.1901 16.6478C2.77157 16.6472 3.329 16.4157 3.73978 16.0042C4.15056 15.5926 4.38105 15.0348 4.38057 14.4534V12.2588H2.1901C0.980469 12.2588 1.10507e-06 13.2415 1.10507e-06 14.4534ZM5.84063 14.4534V20.3054C5.84063 21.5176 6.8211 22.5002 8.03073 22.5002C8.6122 22.4997 9.1696 22.2681 9.58038 21.8565C9.99117 21.4451 10.2217 20.8871 10.2212 20.3057V14.4534C10.2215 14.1654 10.1651 13.8802 10.0551 13.6141C9.94523 13.348 9.78393 13.1062 9.58056 12.9024C9.3771 12.6986 9.13554 12.5369 8.86961 12.4265C8.60372 12.316 8.31867 12.2591 8.03073 12.2588C6.8211 12.2588 5.84063 13.2415 5.84063 14.4534Z" fill="white"/>
</g>
</g>
<defs>
<clipPath id="clip0_21_166">
<rect width="82" height="22" fill="white" transform="translate(0 0.5)"/>
</clipPath>
</defs>
</svg>
