<svg width="76" height="23" viewBox="0 0 76 23" fill="none" xmlns="http://www.w3.org/2000/svg">
<g clip-path="url(#clip0_21_201)">
<mask id="mask0_21_201" style="mask-type:luminance" maskUnits="userSpaceOnUse" x="0" y="0" width="76" height="23">
<path d="M76 0.5H0V22.5H76V0.5Z" fill="white"/>
</mask>
<g mask="url(#mask0_21_201)">
<path d="M30 4.5V17.2715H31.6193V12.1952H34.2067L37.5132 17.2715H39.4212L35.9166 12.0615C37.6887 11.9055 39.2854 10.6462 39.2854 8.34484C39.2854 5.99336 37.5925 4.5 35.2145 4.5H30ZM71.15 5.49186V8.02165H69.6213V9.28654H71.15V15.338C71.15 16.7143 71.886 17.5 73.2448 17.5C74.0941 17.5 74.6603 17.2493 75 16.9038L74.547 15.8339C74.3772 16.0457 73.9809 16.2184 73.5845 16.2184C72.9618 16.2184 72.622 15.7169 72.622 15.0315V9.28654H74.547V8.02165H72.622V5.49186H71.15ZM31.6193 5.91535H35.022C36.5564 5.91535 37.6095 6.91277 37.6095 8.34484C37.6095 9.78247 36.5564 10.7966 35.022 10.7966H31.6193V5.91535ZM45.0491 7.79318C42.3597 7.79318 40.4121 9.95521 40.4121 12.6354C40.4121 15.5274 42.4163 17.5 45.1623 17.5C46.691 17.5 47.9932 17.0041 48.8991 16.0847L48.2197 15.1429C47.4836 15.8896 46.4079 16.3131 45.3322 16.3131C43.3109 16.3131 42.0653 14.8588 41.9521 13.1147H49.5219V12.7525C49.5219 9.97192 47.88 7.79318 45.0491 7.79318ZM55.1271 7.79318C53.5984 7.79318 52.4094 8.28911 51.3903 9.32555L52.0697 10.3174C52.919 9.43699 53.8249 9.03579 54.9572 9.03579C56.3161 9.03579 57.3352 9.74346 57.3352 10.9916V12.6577C56.5425 11.794 55.4668 11.3928 54.2212 11.3928C52.6359 11.3928 50.9373 12.368 50.9373 14.4353C50.9373 16.4468 52.6359 17.5 54.2212 17.5C55.4668 17.5 56.5425 17.0598 57.3352 16.2184V17.2715H58.7506V10.9136C58.7506 8.6736 57.1087 7.79318 55.1271 7.79318ZM65.5448 7.79318C62.7705 7.79318 60.8455 9.89949 60.8455 12.6354C60.8455 15.3937 62.7705 17.5 65.5448 17.5C67.2433 17.5 68.2624 16.809 68.9985 15.8896L68.036 15.0092C67.4132 15.8339 66.6205 16.2184 65.658 16.2184C63.6198 16.2184 62.3742 14.686 62.3742 12.6354C62.3742 10.5849 63.6198 9.0748 65.658 9.0748C66.6205 9.0748 67.4132 9.43699 68.036 10.2784L68.9985 9.39799C68.2624 8.47857 67.2433 7.79318 65.5448 7.79318ZM44.9925 8.98007C47.1439 8.98007 48.0498 10.6852 48.1064 12.0615H41.9521C42.0257 10.6462 43.0221 8.98007 44.9925 8.98007ZM54.7307 12.4237C55.7499 12.4237 56.769 12.8082 57.3352 13.5716V15.3157C56.769 16.0847 55.7499 16.4636 54.7307 16.4636C53.3719 16.4636 52.4094 15.6222 52.4094 14.4576C52.4094 13.2651 53.3719 12.4237 54.7307 12.4237Z" fill="white" stroke="white" stroke-width="0.2"/>
<path d="M16.8288 1.5C16.8048 1.5 16.7808 1.5 16.7568 1.5C16.3647 1.508 15.9487 1.6016 15.5247 1.75841C14.6727 2.07123 13.7486 2.65166 12.8086 3.47009C12.6246 3.6305 12.4365 3.80251 12.2485 3.98252C12.1245 3.86251 12.0005 3.75051 11.8765 3.6385C10.8805 2.75526 9.90043 2.13403 9.00438 1.79921C8.55636 1.63201 8.12034 1.5316 7.71232 1.522C7.3043 1.512 6.92428 1.592 6.59227 1.78561C5.94424 2.15883 5.59222 2.89407 5.44021 3.78651C5.28421 4.68415 5.32421 5.7722 5.56422 6.99626C5.61222 7.24027 5.66822 7.48829 5.73223 7.7443C5.44421 7.8243 5.1642 7.91231 4.90019 8.00431C3.73493 8.40833 2.79249 8.92035 2.11565 9.49638C1.43882 10.0764 1 10.7484 1 11.4805C1 12.2365 1.46122 12.9365 2.17446 13.5446C2.88769 14.1566 3.88294 14.7006 5.1122 15.1167C5.30821 15.1847 5.50822 15.2487 5.71623 15.3087C5.64822 15.5807 5.58822 15.8487 5.54022 16.1087C5.31221 17.3208 5.28421 18.3928 5.44421 19.2689C5.60822 20.1449 5.97224 20.8609 6.60827 21.2249C7.2603 21.605 8.09634 21.553 8.98438 21.2409C9.86843 20.9289 10.8325 20.3369 11.8085 19.4809C11.9645 19.3449 12.1205 19.2008 12.2765 19.0488C12.4805 19.2448 12.6846 19.4329 12.8886 19.6049C13.8206 20.4089 14.7327 20.9689 15.5727 21.2649C16.4127 21.561 17.2168 21.605 17.8488 21.2369C18.5048 20.8569 18.8769 20.1089 19.0489 19.1848C19.2209 18.2608 19.1889 17.1287 18.9369 15.8567C18.8969 15.6607 18.8529 15.4567 18.8049 15.2567C18.9449 15.2127 19.0849 15.1687 19.2209 15.1247C20.4849 14.7086 21.513 14.1726 22.253 13.5646C22.9931 12.9565 23.4731 12.2525 23.4731 11.4805C23.4731 10.7364 23.0131 10.0644 22.317 9.48038C21.621 8.90035 20.6569 8.38833 19.4769 7.98431C19.2449 7.90431 19.0049 7.8283 18.7569 7.7563C18.7969 7.59229 18.8369 7.42828 18.8689 7.26428C19.1369 5.96021 19.1849 4.80016 19.0289 3.85491C18.8689 2.91007 18.5008 2.14203 17.8328 1.75641C17.5328 1.582 17.1888 1.5028 16.8288 1.5ZM16.7608 2.46605C17.0128 2.45965 17.2128 2.50605 17.3528 2.58805C17.6568 2.76206 17.9488 3.23008 18.0808 4.01092C18.2128 4.79616 18.1768 5.85221 17.9248 7.06827C17.8928 7.21627 17.8608 7.36428 17.8248 7.51629C16.8968 7.30028 15.8847 7.14027 14.8207 7.04027C14.2086 6.16822 13.5686 5.36819 12.9206 4.66815C13.0966 4.50294 13.2646 4.34294 13.4366 4.19493C14.3126 3.43449 15.1567 2.91647 15.8567 2.65966C16.2047 2.53125 16.5087 2.47245 16.7608 2.46605ZM7.60832 2.48805C7.63632 2.48805 7.67232 2.48805 7.70432 2.48805C7.97233 2.49565 8.29635 2.56005 8.66837 2.69846C9.4124 2.97607 10.3124 3.5345 11.2365 4.35854C11.3485 4.45854 11.4605 4.56255 11.5725 4.67215C10.9245 5.36819 10.2804 6.16422 9.66042 7.03626C8.60036 7.13627 7.58832 7.29628 6.66427 7.50429C6.60427 7.26828 6.55227 7.03627 6.50826 6.81225C6.28425 5.6762 6.26025 4.68415 6.38426 3.95052C6.51226 3.21728 6.78828 2.78126 7.07229 2.61645C7.2043 2.54005 7.38431 2.49365 7.60832 2.48805ZM12.2485 5.36018C12.6926 5.83621 13.1326 6.37223 13.5686 6.95226C13.1326 6.93226 12.6846 6.92026 12.2365 6.92026C11.7925 6.92026 11.3525 6.93226 10.9165 6.95226C11.3565 6.37223 11.8045 5.84021 12.2485 5.36018ZM12.2365 7.88031C12.9366 7.88031 13.6206 7.90831 14.2846 7.95631C14.6607 8.50834 15.0247 9.08836 15.3727 9.68839C15.7207 10.2884 16.0447 10.8925 16.3367 11.4885C16.0447 12.0925 15.7247 12.7045 15.3727 13.3086C15.0247 13.9126 14.6647 14.4926 14.2926 15.0486C13.6246 15.0967 12.9366 15.1207 12.2365 15.1207C11.5445 15.1207 10.8645 15.0967 10.2004 15.0566C9.82442 14.5006 9.45641 13.9206 9.10439 13.3166C8.75237 12.7125 8.43236 12.1045 8.14434 11.5045C8.43236 10.9005 8.75237 10.2964 9.10039 9.69239C9.44841 9.08836 9.81642 8.50834 10.1924 7.95631C10.8565 7.90831 11.5405 7.88031 12.2365 7.88031ZM8.95638 8.08032C8.72037 8.44833 8.49236 8.82435 8.26835 9.21237C8.04434 9.60039 7.83633 9.98841 7.63632 10.3724C7.3523 9.70839 7.11629 9.05636 6.92028 8.43233C7.56031 8.28833 8.24035 8.17232 8.95638 8.08032ZM15.5167 8.08432C16.2367 8.17232 16.9248 8.29633 17.5648 8.44033C17.3728 9.06436 17.1288 9.71239 16.8448 10.3764C16.6408 9.98841 16.4247 9.59639 16.2007 9.20837C15.9767 8.82435 15.7487 8.44833 15.5167 8.08432ZM5.98824 8.66834C6.26825 9.57639 6.63627 10.5324 7.08429 11.5045C6.62827 12.4925 6.25625 13.4606 5.97224 14.3806C5.78423 14.3286 5.60022 14.2686 5.42021 14.2086C4.28416 13.8206 3.38731 13.3206 2.79889 12.8165C2.21006 12.3125 1.96005 11.8245 1.96005 11.4805C1.96005 11.1485 2.18846 10.7004 2.73968 10.2284C3.29051 9.7564 4.13615 9.28437 5.2162 8.90835C5.46021 8.82435 5.72023 8.74435 5.98824 8.66834ZM18.5008 8.68034C18.7289 8.74835 18.9529 8.82035 19.1649 8.89235C20.2609 9.26837 21.133 9.7404 21.705 10.2204C22.273 10.6964 22.513 11.1525 22.513 11.4805C22.513 11.8285 22.257 12.3165 21.645 12.8205C21.029 13.3246 20.0969 13.8246 18.9209 14.2166C18.7969 14.2566 18.6728 14.2966 18.5448 14.3326C18.2568 13.4206 17.8688 12.4605 17.4048 11.4885C17.8528 10.5284 18.2208 9.58439 18.5008 8.68034ZM12.2365 9.47638C11.7052 9.47712 11.1959 9.68851 10.8202 10.0642C10.4446 10.4399 10.2332 10.9492 10.2324 11.4805C10.2321 12.0125 10.443 12.5228 10.8188 12.8994C11.1946 13.2759 11.7046 13.4878 12.2365 13.4886C12.5003 13.4887 12.7615 13.4369 13.0052 13.336C13.2489 13.2352 13.4703 13.0873 13.6568 12.9008C13.8433 12.7143 13.9912 12.4928 14.0921 12.2491C14.193 12.0054 14.2448 11.7442 14.2446 11.4805C14.2439 10.9485 14.032 10.4386 13.6554 10.0628C13.2789 9.68698 12.7685 9.47606 12.2365 9.47638ZM16.8568 12.6005C17.1528 13.2806 17.4088 13.9446 17.6088 14.5766C16.9568 14.7246 16.2527 14.8446 15.5167 14.9326C15.7487 14.5606 15.9807 14.1766 16.2047 13.7886C16.4327 13.3926 16.6488 12.9966 16.8568 12.6005ZM7.63632 12.6325C7.83633 13.0206 8.04834 13.4086 8.27235 13.7966C8.50036 14.1886 8.73637 14.5726 8.97638 14.9486C8.24835 14.8686 7.55231 14.7566 6.90828 14.6166C7.10429 13.9806 7.3483 13.3166 7.63632 12.6325ZM17.8728 15.5007C17.9208 15.6847 17.9608 15.8687 17.9968 16.0447C18.2288 17.2208 18.2448 18.2488 18.1048 19.0088C17.9648 19.7729 17.6648 20.2329 17.3688 20.4049C17.0808 20.5729 16.5767 20.6009 15.8927 20.3609C15.2087 20.1169 14.3766 19.6209 13.5126 18.8768C13.3246 18.7168 13.1366 18.5448 12.9486 18.3608C13.5926 17.6568 14.2246 16.8487 14.8327 15.9687C15.9127 15.8727 16.9368 15.7167 17.8728 15.5007ZM6.64827 15.5447C7.58432 15.7527 8.60436 15.8967 9.67642 15.9807C10.3004 16.8607 10.9525 17.6648 11.6045 18.3648C11.4605 18.5048 11.3205 18.6368 11.1765 18.7608C10.2764 19.5489 9.3924 20.0769 8.66437 20.3329C7.93233 20.5929 7.38431 20.5649 7.08829 20.3929C6.80028 20.2289 6.52426 19.8049 6.38826 19.0928C6.25625 18.3808 6.27225 17.4128 6.48426 16.2887C6.52827 16.0487 6.58427 15.8007 6.64827 15.5447ZM13.5926 16.0487C13.1566 16.6407 12.7166 17.1847 12.2765 17.6728C11.8245 17.1847 11.3685 16.6407 10.9245 16.0567C11.3565 16.0727 11.7925 16.0807 12.2365 16.0807C12.6926 16.0807 13.1446 16.0687 13.5926 16.0487Z" fill="white" stroke="white" stroke-width="0.2"/>
</g>
</g>
<defs>
<clipPath id="clip0_21_201">
<rect width="76" height="22" fill="white" transform="translate(0 0.5)"/>
</clipPath>
</defs>
</svg>
