<svg width="70" height="23" viewBox="0 0 70 23" fill="none" xmlns="http://www.w3.org/2000/svg">
<g clip-path="url(#clip0_21_99)">
<path d="M3.66929 22.5C5.69237 22.5 7.33468 20.8577 7.33468 18.8346V15.1692H3.66929C1.64621 15.1692 0.00390625 16.8115 0.00390625 18.8346C0.00390625 20.8577 1.64621 22.5 3.66929 22.5Z" fill="white"/>
<path d="M0 11.5C0 9.4769 1.64231 7.83459 3.66538 7.83459H7.33077V15.1692H3.66538C1.64231 15.1692 0 13.5269 0 11.5038V11.5Z" fill="white"/>
<path d="M0 4.16538C0 2.14231 1.64231 0.5 3.66538 0.5H7.33077V7.83462H3.66538C1.64231 7.83462 0 6.19231 0 4.16923V4.16538Z" fill="white"/>
<path d="M7.30005 0.5H10.9654C12.9885 0.5 14.6308 2.14231 14.6308 4.16539C14.6308 6.18846 12.9885 7.83077 10.9654 7.83077H7.30005V0.5Z" fill="white"/>
<path d="M14.6693 11.5C14.6693 13.5231 13.027 15.1654 11.0039 15.1654C8.98082 15.1654 7.30005 13.5231 7.30005 11.5C7.30005 9.4769 8.94236 7.83459 10.9654 7.83459C12.9885 7.83459 14.6308 9.4769 14.6308 11.5H14.6693Z" fill="white"/>
<path d="M23 4.5V17.7789H24.6642V11.4385H28.666V9.7903H24.6642V6.16153H29.864V4.5H23ZM32.8751 7.19832C33.4773 7.19832 33.963 6.69986 33.963 6.08177C33.963 5.46369 33.4709 5.03169 32.8751 5.03169C32.2794 5.03169 31.7872 5.53015 31.7872 6.14824C31.7872 6.44731 31.9038 6.72645 32.111 6.94577C32.3182 7.16509 32.5902 7.27807 32.8881 7.27807L32.8751 7.19832ZM32.0333 8.87314V17.7789H33.6327V8.87314H31.9815H32.0333ZM39.8816 8.60729C37.667 8.60729 36.1258 10.6011 36.1258 12.8076C36.1258 15.0141 37.6799 16.9947 39.8816 16.9947C40.3397 17.0029 40.7945 16.9132 41.217 16.7313C41.6395 16.5494 42.0205 16.2792 42.3358 15.938V17.121C42.3312 17.8317 42.0625 18.5139 41.5846 19.0284C41.3432 19.2812 41.055 19.4819 40.737 19.6189C40.419 19.7558 40.0775 19.8262 39.7326 19.8259C39.2031 19.8088 38.6899 19.6332 38.2562 19.3208L37.4144 20.8029C38.0609 21.2296 38.8075 21.4695 39.5757 21.4973C40.3438 21.5251 41.105 21.3397 41.7792 20.9608C42.4533 20.5818 43.0154 20.0233 43.4062 19.344C43.7971 18.6648 44.0022 17.8899 44 17.101V8.85985H42.3358V9.65738C42.0205 9.31614 41.6395 9.04597 41.217 8.86404C40.7945 8.68212 40.3397 8.59242 39.8816 8.60065V8.60729ZM37.7965 12.8076C37.7586 12.3755 37.8391 11.9412 38.0291 11.5536C38.219 11.1661 38.5108 10.8407 38.8714 10.6144C39.6096 10.1492 40.5356 10.1492 41.2673 10.6144C41.9991 11.0796 42.4135 11.9303 42.3423 12.8076C42.3802 13.2397 42.2996 13.6741 42.1097 14.0616C41.9197 14.4492 41.628 14.7745 41.2673 15.0009C40.5291 15.4661 39.6031 15.4661 38.8714 15.0009C38.1397 14.5356 37.7252 13.6849 37.7965 12.8076Z" fill="white"/>
<path d="M50.5293 10.3708C50.0426 10.3727 49.5764 10.5831 49.2322 10.9561C48.8881 11.3291 48.694 11.8345 48.6922 12.362V18.4142H47V8.85065H48.6922V9.65712C49.2058 8.91488 50.0223 8.48666 50.8783 8.50093C51.9582 8.47239 52.9656 9.10044 53.499 10.121C54.1575 9.12185 55.1056 8.51521 56.1328 8.50093C58.0621 8.50093 59.2605 10.1853 59.2671 12.2693V18.3571H57.5749V12.2907C57.6245 11.9128 57.5732 11.5274 57.4271 11.1801C57.281 10.8328 57.0461 10.5381 56.7504 10.3309C56.4546 10.1237 56.1103 10.0127 55.7582 10.0109C55.406 10.0091 55.0608 10.1167 54.7632 10.3209C54.4674 10.5299 54.2331 10.8267 54.0884 11.1759C53.9436 11.5251 53.8945 11.9121 53.9467 12.2907V18.3428H52.3204V12.2978C52.3186 11.7703 52.1245 11.2649 51.7804 10.8919C51.4362 10.5189 50.9699 10.3085 50.4832 10.3066L50.5293 10.3708ZM68.3078 9.87123C67.9226 9.43559 67.4593 9.08993 66.9463 8.85551C66.4334 8.62109 65.8816 8.50285 65.3249 8.50807C62.803 8.50807 61.0449 10.8204 61.0449 13.504C61.0449 16.1875 62.8228 18.4998 65.3249 18.4998C65.8816 18.5051 66.4334 18.3868 66.9463 18.1524C67.4593 17.918 67.9226 17.5723 68.3078 17.1367V18.2215H70V8.65795H68.3078V9.87123ZM62.7108 13.5825C62.6252 12.4405 63.1388 11.3414 64.0409 10.7419C64.943 10.1424 66.0163 10.1424 66.9777 10.7419C67.418 11.0381 67.7748 11.4596 68.0094 11.9605C68.2439 12.4614 68.3471 13.0224 68.3078 13.5825C68.3934 14.7244 67.8798 15.8235 66.9777 16.423C66.0756 17.0225 65.0023 17.0225 64.0409 16.423C63.6006 16.1268 63.2438 15.7053 63.0092 15.2044C62.7747 14.7035 62.6715 14.1425 62.7108 13.5825Z" fill="white"/>
</g>
<defs>
<clipPath id="clip0_21_99">
<rect width="70" height="22" fill="white" transform="translate(0 0.5)"/>
</clipPath>
</defs>
</svg>
