<svg width="85" height="23" viewBox="0 0 85 23" fill="none" xmlns="http://www.w3.org/2000/svg">
<g clip-path="url(#clip0_21_176)">
<mask id="mask0_21_176" style="mask-type:luminance" maskUnits="userSpaceOnUse" x="0" y="0" width="22" height="23">
<path d="M22 11.5C22 5.42487 17.0751 0.5 11 0.5C4.92487 0.5 0 5.42487 0 11.5C0 17.5751 4.92487 22.5 11 22.5C17.0751 22.5 22 17.5751 22 11.5Z" fill="white"/>
</mask>
<g mask="url(#mask0_21_176)">
<path fill-rule="evenodd" clip-rule="evenodd" d="M11 0.5C4.9225 0.5 0 5.4225 0 11.5C0 16.3675 3.14875 20.4788 7.52125 21.9363C8.07125 22.0325 8.2775 21.7025 8.2775 21.4137C8.2775 21.1525 8.26375 20.2863 8.26375 19.365C5.5 19.8738 4.785 18.6912 4.565 18.0725C4.44125 17.7563 3.905 16.78 3.4375 16.5187C3.0525 16.3125 2.5025 15.8038 3.42375 15.79C4.29 15.7762 4.90875 16.5875 5.115 16.9175C6.105 18.5812 7.68625 18.1138 8.31875 17.825C8.415 17.11 8.70375 16.6287 9.02 16.3537C6.5725 16.0787 4.015 15.13 4.015 10.9225C4.015 9.72625 4.44125 8.73625 5.1425 7.96625C5.0325 7.69125 4.6475 6.56375 5.2525 5.05125C5.2525 5.05125 6.17375 4.7625 8.2775 6.17875C9.1575 5.93125 10.0925 5.8075 11.0275 5.8075C11.9625 5.8075 12.8975 5.93125 13.7775 6.17875C15.8813 4.74875 16.8025 5.05125 16.8025 5.05125C17.4075 6.56375 17.0225 7.69125 16.9125 7.96625C17.6138 8.73625 18.04 9.7125 18.04 10.9225C18.04 15.1438 15.4688 16.0787 13.0213 16.3537C13.42 16.6975 13.7638 17.3575 13.7638 18.3888C13.7638 19.86 13.75 21.0425 13.75 21.4137C13.75 21.7025 13.9563 22.0462 14.5063 21.9363C18.8512 20.4788 22 16.3538 22 11.5C22 5.4225 17.0775 0.5 11 0.5Z" fill="white"/>
</g>
<mask id="mask1_21_176" style="mask-type:luminance" maskUnits="userSpaceOnUse" x="29" y="4" width="56" height="16">
<path d="M85 4.5H29V19.5H85V4.5Z" fill="white"/>
</mask>
<g mask="url(#mask1_21_176)">
<path d="M39.7734 10.8943H35.073C34.9517 10.8943 34.8533 10.9915 34.8533 11.1113V13.3809C34.8533 13.5007 34.9517 13.5982 35.073 13.5982H36.9066V16.418C36.9066 16.418 36.4948 16.5566 35.3566 16.5566C34.0137 16.5566 32.1377 16.072 32.1377 11.9978C32.1377 7.92274 34.0911 7.38658 35.9251 7.38658C37.5126 7.38658 38.1966 7.66265 38.6317 7.79563C38.7684 7.83704 38.8949 7.70256 38.8949 7.5827L39.4193 5.38976C39.4193 5.33374 39.4001 5.26622 39.3353 5.22032C39.1585 5.09586 38.0804 4.5 35.3566 4.5C32.2187 4.5 29 5.81848 29 12.1567C29 18.4951 32.6851 19.4396 35.7906 19.4396C38.3618 19.4396 39.9217 18.3544 39.9217 18.3544C39.986 18.3193 39.9929 18.2306 39.9929 18.1899V11.1113C39.9929 10.9915 39.8947 10.8943 39.7734 10.8943Z" fill="white"/>
<path d="M63.9972 5.25947C63.9972 5.13869 63.9003 5.04126 63.779 5.04126H61.1325C61.0115 5.04126 60.9132 5.13869 60.9132 5.25947L60.914 10.3108H56.7886V5.25947C56.7886 5.13869 56.6912 5.04126 56.5702 5.04126H53.9238C53.8033 5.04126 53.7051 5.13869 53.7051 5.25947V18.9369C53.7051 19.0576 53.8033 19.1559 53.9238 19.1559H56.5702C56.6912 19.1559 56.7886 19.0576 56.7886 18.9369V13.0866H60.914L60.9067 18.9369C60.9067 19.0576 61.0049 19.1559 61.126 19.1559H63.7788C63.9001 19.1559 63.997 19.0576 63.9972 18.9369V5.25947Z" fill="white"/>
<path d="M44.7675 7.05431C44.7675 6.11313 44.0035 5.35254 43.0609 5.35254C42.1192 5.35254 41.3545 6.11313 41.3545 7.05431C41.3545 7.9945 42.1192 8.75713 43.0609 8.75713C44.0035 8.75713 44.7675 7.9945 44.7675 7.05431Z" fill="white"/>
<path d="M44.5782 16.0517C44.5782 15.7013 44.5782 9.73814 44.5782 9.73814C44.5782 9.61825 44.4802 9.52026 44.3593 9.52026H41.721C41.6 9.52026 41.4917 9.64355 41.4917 9.76339C41.4917 9.76339 41.4917 17.3607 41.4917 18.8089C41.4917 19.0747 41.6594 19.1537 41.8765 19.1537C41.8765 19.1537 43.0026 19.1537 44.2535 19.1537C44.5142 19.1537 44.5782 19.0273 44.5782 18.8046C44.5782 18.3198 44.5782 16.4204 44.5782 16.0517Z" fill="white"/>
<path d="M74.0555 9.54077H71.4291C71.3087 9.54077 71.2106 9.63881 71.2106 9.75945V16.4659C71.2106 16.4659 70.5435 16.9481 69.5964 16.9481C68.6495 16.9481 68.3981 16.5237 68.3981 15.608C68.3981 14.6911 68.3981 9.75945 68.3981 9.75945C68.3981 9.63881 68.3003 9.54077 68.1797 9.54077H65.5143C65.394 9.54077 65.2954 9.63881 65.2954 9.75945C65.2954 9.75945 65.2954 13.3309 65.2954 16.0508C65.2954 18.7709 66.8304 19.4363 68.9421 19.4363C70.6744 19.4363 72.0711 18.4911 72.0711 18.4911C72.0711 18.4911 72.1377 18.9892 72.1677 19.0482C72.1979 19.1071 72.2762 19.1667 72.3609 19.1667L74.0567 19.1593C74.177 19.1593 74.2754 19.061 74.2754 18.9409L74.2747 9.75945C74.2747 9.63881 74.1765 9.54077 74.0555 9.54077Z" fill="white"/>
<path d="M80.1973 16.9399C79.2863 16.9125 78.6684 16.5043 78.6684 16.5043V12.1729C78.6684 12.1729 79.2781 11.8039 80.0259 11.7379C80.9717 11.6543 81.883 11.9364 81.883 14.1645C81.883 16.5142 81.4717 16.9778 80.1973 16.9399ZM81.2331 9.23364C79.7414 9.23364 78.7269 9.89093 78.7269 9.89093V5.25947C78.7269 5.13869 78.6292 5.04126 78.5085 5.04126H75.8544C75.7338 5.04126 75.6357 5.13869 75.6357 5.25947V18.9369C75.6357 19.0576 75.7338 19.1559 75.8548 19.1559H77.6962C77.7791 19.1559 77.8419 19.1136 77.8883 19.0397C77.9341 18.9662 78.0001 18.4091 78.0001 18.4091C78.0001 18.4091 79.0854 19.4249 81.1399 19.4249C83.5518 19.4249 84.935 18.2165 84.935 14.0006C84.935 9.78458 82.7258 9.23364 81.2331 9.23364Z" fill="white"/>
<path d="M52.1847 9.51905H50.1995L50.1965 6.92875C50.1965 6.83074 50.1453 6.78174 50.0306 6.78174H47.3252C47.22 6.78174 47.1635 6.82741 47.1635 6.92726V9.60398C47.1635 9.60398 45.8078 9.92724 45.7161 9.95335C45.6248 9.9795 45.5576 10.0626 45.5576 10.1618V11.8439C45.5576 11.9648 45.6555 12.0624 45.7764 12.0624H47.1635C47.1635 12.0624 47.1635 13.8217 47.1635 16.109C47.1635 19.1146 49.2982 19.4099 50.7388 19.4099C51.3969 19.4099 52.1843 19.2011 52.3142 19.1537C52.3929 19.1252 52.4385 19.0448 52.4385 18.9576L52.4408 17.1073C52.4408 16.9866 52.3375 16.8889 52.2213 16.8889C52.1057 16.8889 51.8097 16.9354 51.505 16.9354C50.5299 16.9354 50.1995 16.4876 50.1995 15.908C50.1995 15.3288 50.1994 12.0624 50.1994 12.0624H52.1847C52.3058 12.0624 52.4037 11.9648 52.4037 11.8439V9.737C52.4037 9.61624 52.3058 9.51905 52.1847 9.51905Z" fill="white"/>
</g>
</g>
<defs>
<clipPath id="clip0_21_176">
<rect width="85" height="22" fill="white" transform="translate(0 0.5)"/>
</clipPath>
</defs>
</svg>
