<svg width="68" height="28" viewBox="0 0 68 28" fill="none" xmlns="http://www.w3.org/2000/svg">
<g clip-path="url(#clip0_21_208)">
<mask id="mask0_21_208" style="mask-type:luminance" maskUnits="userSpaceOnUse" x="0" y="0" width="68" height="28">
<path d="M68 0.5H0V27.5H68V0.5Z" fill="white"/>
</mask>
<g mask="url(#mask0_21_208)">
<path fill-rule="evenodd" clip-rule="evenodd" d="M0 3.5L1.7653 23.2996L9.68766 25.5L17.6315 23.2979L19.4004 3.5H0ZM15.5565 9.97754H6.26449L6.48649 12.4644H15.3363L14.6702 19.9194L9.68945 21.2998L4.71403 19.9194L4.37386 16.1042H6.81234L6.986 18.0431L9.69124 18.7718L9.69661 18.77L12.4019 18.0396L12.6829 14.8903H4.26644L3.61296 7.54622H15.7767L15.5565 9.97754Z" fill="white"/>
<path d="M35.125 18.5H32.86V13.88H28.615V18.5H26.35V7.79004H28.615V11.99H32.86V7.79004H35.125V18.5ZM41.9447 18.5H39.6797V9.68004H36.7697V7.79004H44.8547V9.68004H41.9447V18.5ZM51.0363 18.5L48.4563 10.1H48.3963C48.4063 10.3 48.4213 10.6 48.4413 11C48.4613 11.4 48.4813 11.83 48.5013 12.29C48.5213 12.74 48.5313 13.15 48.5313 13.52V18.5H46.5063V7.79004H49.5963L52.1313 15.98H52.1763L54.8613 7.79004H57.9513V18.5H55.8363V13.43C55.8363 13.09 55.8413 12.7 55.8513 12.26C55.8713 11.82 55.8863 11.405 55.8963 11.015C55.9163 10.615 55.9313 10.315 55.9413 10.115H55.8813L53.1213 18.5H51.0363ZM60.6566 18.5V7.79004H62.9216V16.625H67.2716V18.5H60.6566Z" fill="white"/>
</g>
</g>
<defs>
<clipPath id="clip0_21_208">
<rect width="68" height="27" fill="white" transform="translate(0 0.5)"/>
</clipPath>
</defs>
</svg>
