<svg width="151" height="23" viewBox="0 0 151 23" fill="none" xmlns="http://www.w3.org/2000/svg">
<g clip-path="url(#clip0_21_117)">
<mask id="mask0_21_117" style="mask-type:luminance" maskUnits="userSpaceOnUse" x="0" y="0" width="151" height="23">
<path d="M151 0.5H0V22.5H151V0.5Z" fill="white"/>
</mask>
<g mask="url(#mask0_21_117)">
<path d="M91.386 8.28818L93.4876 13.6527H89.4152L91.386 8.28818ZM90.5977 6.5L86 18.2508H87.7079L88.8904 15.0577H94.0135L95.1959 18.2508H96.9038L92.3061 6.5H90.5977ZM115.424 18.2508H117V6.5H115.424V18.2508ZM99.2616 11.3532C99.7875 10.5867 100.838 9.94829 101.889 9.94829C103.991 9.94829 105.042 11.3532 105.042 13.3971V18.3784H103.466V13.6522C103.466 11.9916 102.547 11.3537 101.364 11.3537C100.05 11.3537 99.1309 12.6311 99.1309 13.7803V18.2508H97.5548V10.0764H99.1309L99.2616 11.3532ZM106.356 15.8242C106.356 14.036 108.064 13.0143 110.034 13.0143C111.217 13.0143 112.005 13.27 112.267 13.5257V13.27C112.267 11.9926 111.217 11.3537 110.166 11.3537C109.247 11.3537 108.458 11.737 108.195 12.5035L106.754 11.8641C107.017 11.0976 108.068 9.94779 110.175 9.94779C112.146 9.94779 113.853 11.0976 113.853 13.3966V18.2503H112.408V17.0951H112.277C111.883 17.7335 110.963 18.5 109.519 18.5C107.811 18.5 106.366 17.4783 106.366 15.8177L106.356 15.8242ZM112.277 14.796C112.277 14.796 111.621 14.2847 110.306 14.2847C108.73 14.2847 108.073 15.1783 108.073 15.8172C108.073 16.7108 108.992 17.0946 109.781 17.0946C110.963 17.0946 112.277 16.0729 112.277 14.796Z" fill="white"/>
<path fill-rule="evenodd" clip-rule="evenodd" d="M119.452 21.5L121.299 17.3267L118 10.0003H119.584L122.091 15.5582L124.598 10.0003H126.182L121.036 21.5H119.452ZM142.68 12.6585C142.283 11.647 141.36 11.0161 140.436 11.0161C139.116 11.0161 137.929 12.1532 137.929 13.7951C137.929 15.4369 139.117 16.574 140.436 16.574C141.36 16.574 142.284 15.9426 142.68 15.0584L144 15.8164C143.34 17.2059 142.02 18.0897 140.436 18.0897C138.193 18.0897 136.345 16.1945 136.345 13.7951C136.345 11.2685 138.193 9.5 140.436 9.5C142.02 9.5 143.34 10.3838 144 11.7732L142.68 12.657V12.6585Z" fill="white"/>
<path d="M147.869 18.499C149.956 18.499 151 17.3075 151 15.8517C151 12.6751 146.435 13.866 146.435 12.014C146.435 11.3525 146.957 10.9553 147.869 10.9553C148.782 10.9553 149.696 11.3525 150.087 12.014L150.999 11.0881C150.477 10.4265 149.043 9.5 147.739 9.5C145.782 9.5 144.739 10.6914 144.739 12.1473C144.739 15.1912 149.434 14.133 149.434 15.721C149.434 16.5153 148.912 17.0447 147.869 17.0447C146.827 17.0447 146.304 16.3831 145.783 15.721L144.609 16.647C145.391 17.4413 146.566 18.499 147.869 18.499ZM133 18.234H134.565V9.7639H133V18.234Z" fill="white"/>
<path fill-rule="evenodd" clip-rule="evenodd" d="M133.857 5.5C134.571 5.5 135 6.05363 135 6.60618C135 7.2974 134.428 7.71235 133.857 7.71235C133.286 7.71235 132.714 7.15873 132.714 6.60618C132.714 6.05363 133.286 5.5 133.857 5.5ZM131.429 17.2551L131.715 18.5H130C128.429 18.5 127.714 17.3938 127.714 15.734V11.4469H126V9.78765H127.714V7.16034H129.429V9.78765H131.429V11.4469H129.429V16.0157C129.429 17.2605 130.428 17.2605 131.429 17.2605V17.2551Z" fill="white"/>
<path d="M34.1003 11.0806V13.0952H38.7061C38.5747 14.1694 38.1793 14.9752 37.6535 15.5118C36.9958 16.183 35.9426 16.9889 34.1003 16.9889C31.3368 16.9889 29.0996 14.7059 29.0996 11.7518C29.0996 8.93174 31.3368 6.51465 34.1003 6.51465C35.6792 6.51465 36.7324 7.18586 37.5272 7.8576L38.8432 6.51465C37.6586 5.44051 36.2112 4.5 34.1059 4.5C30.2903 4.5 27 7.72294 27 11.6171C27 15.5113 30.2847 18.7337 34.1008 18.7337C36.2061 18.7337 37.7855 18.0625 38.9701 16.719C40.2861 15.3761 40.681 13.6307 40.681 12.1531C40.681 11.7502 40.681 11.2136 40.5495 10.9443H34.1049L34.1003 11.0806ZM45.8121 9.47455C43.312 9.47455 41.3377 11.3546 41.3377 14.0405C41.3377 16.7263 43.312 18.6058 45.8121 18.6058C48.3122 18.6058 50.2865 16.5912 50.2865 14.0405C50.2865 11.3546 48.3122 9.47455 45.8121 9.47455ZM45.8121 16.86C44.4961 16.86 43.312 15.6512 43.312 14.0399C43.312 12.4287 44.4966 11.2199 45.8121 11.2199C47.1276 11.2199 48.3122 12.2941 48.3122 14.0399C48.3122 15.7858 47.1276 16.86 45.8121 16.86ZM67.3933 10.414C66.8665 9.87645 66.0773 9.33989 64.8932 9.33989C62.656 9.33989 60.6822 11.3546 60.6822 13.9058C60.6822 16.457 62.6565 18.4712 64.8932 18.4712C65.9458 18.4712 66.8675 17.9336 67.2613 17.397H67.3928V18.0682C67.3928 19.8141 66.4721 20.7541 65.0246 20.7541C63.8401 20.7541 63.0503 19.8146 62.7874 19.1429L61.0766 19.8141C61.6034 21.0229 62.9189 22.5 65.0241 22.5C67.3923 22.5 69.3717 21.1571 69.3717 17.6658V9.34094H67.5293V10.4151L67.3933 10.414ZM65.1561 16.86C63.8401 16.86 62.788 15.6512 62.788 14.0399C62.788 12.4287 63.8406 11.2199 65.1561 11.2199C66.4716 11.2199 67.5242 12.4287 67.5242 14.0399C67.5242 15.6512 66.4716 16.86 65.1561 16.86ZM55.5495 9.47455C53.0495 9.47455 51.0752 11.3546 51.0752 14.0405C51.0752 16.7263 53.0495 18.6058 55.5495 18.6058C58.0496 18.6058 60.0239 16.5912 60.0239 14.0405C60.1554 11.3546 58.0496 9.47455 55.5495 9.47455ZM55.5495 16.86C54.2335 16.86 53.0495 15.6512 53.0495 14.0399C53.0495 12.4287 54.234 11.2199 55.5495 11.2199C56.8651 11.2199 58.0496 12.2941 58.0496 14.0399C58.0496 15.7858 56.8651 16.86 55.5495 16.86ZM70.8145 4.63516H72.7888V18.6006H70.8145V4.63516ZM78.1839 16.8547C77.1313 16.8547 76.473 16.3171 75.9467 15.5118L82 12.9606L81.7366 12.423C81.3417 11.3488 80.1577 9.46881 77.921 9.46881C75.5529 9.46881 73.71 11.3488 73.71 14.0347C73.71 16.5859 75.6843 18.6001 78.1844 18.6001C80.2896 18.6001 81.4742 17.2571 82 16.5854L80.4211 15.5113C79.8943 16.3171 79.2365 16.8547 78.1839 16.8547ZM78.0524 11.2147C78.8422 11.2147 79.4999 11.6176 79.7633 12.2888L75.6838 14.0347C75.6838 12.02 77.0003 11.2147 78.0524 11.2147Z" fill="white"/>
<path d="M14.0387 3.13677V19.5058C14.0387 21.3374 15.3036 22.358 16.6429 22.358C17.883 22.358 19.2471 21.49 19.2471 19.5058V3.26078C19.2471 1.5817 18.007 0.532593 16.6429 0.532593C15.2788 0.532593 14.0387 1.68959 14.0387 3.13677Z" fill="white"/>
<path d="M7.21814 11.4454V19.5059C7.21814 21.3375 8.483 22.3581 9.82229 22.3581C11.0623 22.3581 12.4264 21.4901 12.4264 19.5059V11.5694C12.4264 9.89031 11.1864 8.84119 9.82229 8.84119C8.45819 8.84119 7.21814 9.9982 7.21814 11.4454Z" fill="white"/>
<path d="M3.00189 22.3581C4.44014 22.3581 5.60608 21.1921 5.60608 19.7539C5.60608 18.3157 4.44014 17.1497 3.00189 17.1497C1.56364 17.1497 0.397705 18.3157 0.397705 19.7539C0.397705 21.1921 1.56364 22.3581 3.00189 22.3581Z" fill="white"/>
</g>
</g>
<defs>
<clipPath id="clip0_21_117">
<rect width="151" height="22" fill="white" transform="translate(0 0.5)"/>
</clipPath>
</defs>
</svg>
