<svg width="96" height="23" viewBox="0 0 96 23" fill="none" xmlns="http://www.w3.org/2000/svg">
<path d="M0.0996534 15.9722L2.39826 14.5811C2.84169 15.3674 3.24508 16.0326 4.21269 16.0326C5.14021 16.0326 5.72492 15.6698 5.72492 14.2586V4.66125H8.54757V14.2984C8.54757 17.222 6.8339 18.5527 4.33369 18.5527C2.07569 18.5527 0.764977 17.3835 0.0996534 15.9722Z" fill="white"/>
<path d="M10.0801 15.6698L12.3784 14.3391C12.9834 15.3272 13.7697 16.0529 15.1608 16.0529C16.3304 16.0529 17.0762 15.4682 17.0762 14.6617C17.0762 13.6939 16.3101 13.3511 15.0197 12.7868L14.3142 12.4842C12.2777 11.6174 10.9268 10.5286 10.9268 8.23006C10.9268 6.11304 12.5398 4.5 15.0601 4.5C16.8546 4.5 18.145 5.12511 19.0723 6.75826L16.8746 8.16951C16.3907 7.30262 15.8666 6.95991 15.0602 6.95991C14.2335 6.95991 13.7092 7.48412 13.7092 8.16951C13.7092 9.01634 14.2335 9.35918 15.4431 9.88344L16.1487 10.1859C18.548 11.2141 19.8989 12.2624 19.8989 14.6213C19.8989 17.1619 17.9029 18.553 15.2214 18.553C12.6003 18.553 10.9067 17.303 10.0801 15.6698Z" fill="white"/>
<path d="M26.21 18.44C25.9393 18.44 25.7013 18.4213 25.496 18.384C25.2907 18.356 25.1133 18.3233 24.964 18.286V16.522C25.1133 16.5593 25.272 16.592 25.44 16.62C25.5987 16.648 25.7713 16.662 25.958 16.662C26.2007 16.662 26.42 16.6153 26.616 16.522C26.8213 16.4287 26.98 16.2513 27.092 15.99C27.204 15.7287 27.26 15.3553 27.26 14.87V5.50399H29.374V14.856C29.374 15.7147 29.2387 16.4053 28.968 16.928C28.7067 17.46 28.338 17.8427 27.862 18.076C27.386 18.3187 26.8353 18.44 26.21 18.44ZM34.8628 7.70199C35.8894 7.70199 36.6734 7.92599 37.2148 8.37399C37.7654 8.81266 38.0408 9.48932 38.0408 10.404V15.5H36.5848L36.1788 14.464H36.1228C35.9081 14.7347 35.6841 14.9587 35.4508 15.136C35.2268 15.3133 34.9654 15.4393 34.6668 15.514C34.3774 15.598 34.0181 15.64 33.5888 15.64C33.1408 15.64 32.7348 15.556 32.3708 15.388C32.0161 15.2107 31.7361 14.9447 31.5308 14.59C31.3254 14.226 31.2228 13.7687 31.2228 13.218C31.2228 12.406 31.5074 11.8087 32.0768 11.426C32.6461 11.034 33.5001 10.8193 34.6388 10.782L35.9688 10.74V10.404C35.9688 10.0027 35.8614 9.70866 35.6468 9.52199C35.4414 9.33532 35.1521 9.24198 34.7788 9.24198C34.4054 9.24198 34.0414 9.29799 33.6868 9.40999C33.3321 9.51266 32.9774 9.64332 32.6228 9.80199L31.9368 8.38799C32.3474 8.17332 32.8001 8.00532 33.2948 7.88399C33.7988 7.76266 34.3214 7.70199 34.8628 7.70199ZM35.1568 11.986C34.4848 12.0047 34.0181 12.126 33.7568 12.35C33.4954 12.574 33.3648 12.868 33.3648 13.232C33.3648 13.5493 33.4581 13.778 33.6448 13.918C33.8314 14.0487 34.0741 14.114 34.3728 14.114C34.8208 14.114 35.1988 13.9833 35.5068 13.722C35.8148 13.4513 35.9688 13.0733 35.9688 12.588V11.958L35.1568 11.986ZM41.996 15.5L39.084 7.85599H41.268L42.738 12.21C42.794 12.378 42.8407 12.5553 42.878 12.742C42.9247 12.9287 42.9573 13.1107 42.976 13.288C43.004 13.4653 43.0227 13.6287 43.032 13.778H43.088C43.0973 13.6193 43.116 13.4513 43.144 13.274C43.172 13.0967 43.2047 12.9193 43.242 12.742C43.2887 12.5553 43.34 12.378 43.396 12.21L44.866 7.85599H47.05L44.138 15.5H41.996ZM51.2827 7.70199C52.3094 7.70199 53.0934 7.92599 53.6347 8.37399C54.1854 8.81266 54.4607 9.48932 54.4607 10.404V15.5H53.0047L52.5987 14.464H52.5427C52.328 14.7347 52.104 14.9587 51.8707 15.136C51.6467 15.3133 51.3854 15.4393 51.0867 15.514C50.7974 15.598 50.438 15.64 50.0087 15.64C49.5607 15.64 49.1547 15.556 48.7907 15.388C48.436 15.2107 48.156 14.9447 47.9507 14.59C47.7454 14.226 47.6427 13.7687 47.6427 13.218C47.6427 12.406 47.9274 11.8087 48.4967 11.426C49.066 11.034 49.92 10.8193 51.0587 10.782L52.3887 10.74V10.404C52.3887 10.0027 52.2814 9.70866 52.0667 9.52199C51.8614 9.33532 51.572 9.24198 51.1987 9.24198C50.8254 9.24198 50.4614 9.29799 50.1067 9.40999C49.752 9.51266 49.3974 9.64332 49.0427 9.80199L48.3567 8.38799C48.7674 8.17332 49.22 8.00532 49.7147 7.88399C50.2187 7.76266 50.7414 7.70199 51.2827 7.70199ZM51.5767 11.986C50.9047 12.0047 50.438 12.126 50.1767 12.35C49.9154 12.574 49.7847 12.868 49.7847 13.232C49.7847 13.5493 49.878 13.778 50.0647 13.918C50.2514 14.0487 50.494 14.114 50.7927 14.114C51.2407 14.114 51.6187 13.9833 51.9267 13.722C52.2347 13.4513 52.3887 13.0733 52.3887 12.588V11.958L51.5767 11.986ZM62.6579 12.728C62.6579 13.316 62.5132 13.8293 62.2239 14.268C61.9346 14.7067 61.5146 15.0473 60.9639 15.29C60.4226 15.5233 59.7599 15.64 58.9759 15.64C58.6306 15.64 58.2899 15.6167 57.9539 15.57C57.6272 15.5233 57.3099 15.458 57.0019 15.374C56.7032 15.2807 56.4186 15.1687 56.1479 15.038V13.064C56.6239 13.2693 57.1139 13.4607 57.6179 13.638C58.1312 13.806 58.6399 13.89 59.1439 13.89C59.4892 13.89 59.7646 13.8433 59.9699 13.75C60.1846 13.6567 60.3386 13.5307 60.4319 13.372C60.5346 13.2133 60.5859 13.0313 60.5859 12.826C60.5859 12.574 60.4972 12.3593 60.3199 12.182C60.1519 12.0047 59.9232 11.8413 59.6339 11.692C59.3446 11.5333 59.0132 11.3653 58.6399 11.188C58.4066 11.076 58.1546 10.9453 57.8839 10.796C57.6132 10.6373 57.3519 10.446 57.0999 10.222C56.8572 9.98866 56.6566 9.70866 56.4979 9.38199C56.3392 9.05532 56.2599 8.66332 56.2599 8.20599C56.2599 7.60866 56.3952 7.09999 56.6659 6.67999C56.9459 6.25066 57.3379 5.92399 57.8419 5.69999C58.3552 5.47599 58.9572 5.36399 59.6479 5.36399C60.1706 5.36399 60.6652 5.42466 61.1319 5.54599C61.6079 5.66732 62.1026 5.83999 62.6159 6.06399L61.9299 7.71599C61.4726 7.52932 61.0619 7.38466 60.6979 7.28199C60.3339 7.17932 59.9606 7.12799 59.5779 7.12799C59.3166 7.12799 59.0926 7.16999 58.9059 7.25399C58.7192 7.33799 58.5746 7.45466 58.4719 7.60399C58.3786 7.75332 58.3319 7.93066 58.3319 8.13599C58.3319 8.36932 58.4019 8.56999 58.5419 8.73799C58.6819 8.89666 58.8919 9.05066 59.1719 9.19999C59.4519 9.34932 59.8019 9.52666 60.2219 9.73199C60.7352 9.97466 61.1692 10.2267 61.5239 10.488C61.8879 10.7493 62.1679 11.0573 62.3639 11.412C62.5599 11.7667 62.6579 12.2053 62.6579 12.728ZM67.4148 15.64C66.6588 15.64 66.0148 15.5047 65.4828 15.234C64.9508 14.954 64.5448 14.5247 64.2648 13.946C63.9848 13.3673 63.8448 12.6253 63.8448 11.72C63.8448 10.7867 64.0035 10.026 64.3208 9.43798C64.6382 8.84998 65.0768 8.41599 65.6368 8.13599C66.2062 7.85599 66.8595 7.71599 67.5968 7.71599C68.1195 7.71599 68.5722 7.76732 68.9548 7.86999C69.3468 7.97266 69.6875 8.09399 69.9768 8.23399L69.3608 9.84399C69.0342 9.71332 68.7262 9.60599 68.4368 9.52199C68.1568 9.43799 67.8768 9.39599 67.5968 9.39599C67.2328 9.39599 66.9295 9.48465 66.6868 9.66198C66.4442 9.82998 66.2622 10.0867 66.1408 10.432C66.0288 10.768 65.9728 11.1927 65.9728 11.706C65.9728 12.21 66.0335 12.63 66.1548 12.966C66.2855 13.2927 66.4722 13.54 66.7148 13.708C66.9575 13.8667 67.2515 13.946 67.5968 13.946C68.0355 13.946 68.4228 13.89 68.7588 13.778C69.0948 13.6567 69.4215 13.4933 69.7388 13.288V15.066C69.4215 15.2713 69.0855 15.416 68.7308 15.5C68.3855 15.5933 67.9468 15.64 67.4148 15.64ZM75.7683 7.71599C75.8709 7.71599 75.9923 7.72066 76.1323 7.72999C76.2723 7.73932 76.3843 7.75332 76.4683 7.77199L76.3143 9.73199C76.2489 9.71332 76.1509 9.69931 76.0203 9.68998C75.8989 9.67131 75.7916 9.66198 75.6983 9.66198C75.4276 9.66198 75.1663 9.69932 74.9143 9.77399C74.6623 9.83932 74.4336 9.94665 74.2283 10.096C74.0323 10.2453 73.8736 10.446 73.7523 10.698C73.6403 10.9407 73.5843 11.244 73.5843 11.608V15.5H71.4983V7.85599H73.0803L73.3883 9.14399H73.4863C73.6356 8.88266 73.8223 8.64466 74.0463 8.42999C74.2703 8.21532 74.5269 8.04266 74.8163 7.91199C75.1149 7.78132 75.4323 7.71599 75.7683 7.71599ZM79.9417 7.85599V15.5H77.8557V7.85599H79.9417ZM78.9057 4.85999C79.2137 4.85999 79.4797 4.93466 79.7037 5.08399C79.9277 5.22399 80.0397 5.48999 80.0397 5.88199C80.0397 6.26466 79.9277 6.53066 79.7037 6.67999C79.4797 6.82932 79.2137 6.90399 78.9057 6.90399C78.5883 6.90399 78.3177 6.82932 78.0937 6.67999C77.879 6.53066 77.7717 6.26466 77.7717 5.88199C77.7717 5.48999 77.879 5.22399 78.0937 5.08399C78.3177 4.93466 78.5883 4.85999 78.9057 4.85999ZM86.3773 7.71599C87.236 7.71599 87.9313 8.05199 88.4633 8.72399C88.9953 9.38666 89.2613 10.3667 89.2613 11.664C89.2613 12.532 89.1353 13.2647 88.8833 13.862C88.6313 14.45 88.286 14.8933 87.8473 15.192C87.4086 15.4907 86.9 15.64 86.3213 15.64C85.9573 15.64 85.64 15.5933 85.3693 15.5C85.108 15.4067 84.884 15.2853 84.6973 15.136C84.5106 14.9867 84.3473 14.828 84.2073 14.66H84.0953C84.1326 14.8373 84.1606 15.024 84.1793 15.22C84.198 15.4067 84.2073 15.5933 84.2073 15.78V18.86H82.1213V7.85599H83.8153L84.1093 8.84999H84.2073C84.3473 8.64466 84.5153 8.45799 84.7113 8.28999C84.9073 8.11266 85.1406 7.97266 85.4113 7.86999C85.6913 7.76732 86.0133 7.71599 86.3773 7.71599ZM85.7053 9.38199C85.3413 9.38199 85.052 9.45666 84.8373 9.60599C84.6226 9.75532 84.464 9.98399 84.3613 10.292C84.268 10.5907 84.2166 10.9687 84.2073 11.426V11.65C84.2073 12.1447 84.254 12.5647 84.3473 12.91C84.4406 13.246 84.5993 13.5027 84.8233 13.68C85.0473 13.8573 85.3506 13.946 85.7333 13.946C86.0506 13.946 86.312 13.8573 86.5173 13.68C86.7226 13.5027 86.8766 13.2413 86.9793 12.896C87.082 12.5507 87.1333 12.1307 87.1333 11.636C87.1333 10.8893 87.0166 10.3293 86.7833 9.95599C86.5593 9.57332 86.2 9.38199 85.7053 9.38199ZM94.2007 13.974C94.434 13.974 94.658 13.9507 94.8727 13.904C95.0873 13.8573 95.302 13.8013 95.5167 13.736V15.29C95.2927 15.3833 95.0127 15.4627 94.6767 15.528C94.35 15.6027 93.9907 15.64 93.5987 15.64C93.1413 15.64 92.7307 15.5653 92.3667 15.416C92.012 15.2667 91.7273 15.01 91.5127 14.646C91.3073 14.2727 91.2047 13.7593 91.2047 13.106V9.42399H90.2107V8.54199L91.3587 7.84199L91.9607 6.23199H93.2907V7.85599H95.4327V9.42399H93.2907V13.106C93.2907 13.3953 93.3747 13.6147 93.5427 13.764C93.7107 13.904 93.93 13.974 94.2007 13.974Z" fill="white"/>
</svg>
