<svg width="51" height="28" viewBox="0 0 51 28" fill="none" xmlns="http://www.w3.org/2000/svg">
<g clip-path="url(#clip0_21_215)">
<mask id="mask0_21_215" style="mask-type:luminance" maskUnits="userSpaceOnUse" x="0" y="0" width="51" height="28">
<path d="M51 0.5H0V27.5H51V0.5Z" fill="white"/>
</mask>
<g mask="url(#mask0_21_215)">
<path d="M18.9565 2.5H1.04239C0.613277 2.5 0.291339 2.86312 0.329197 3.29218L1.96544 21.6281C2.00334 22.0569 2.37417 22.5056 2.7901 22.6215L9.24036 24.4132C9.65573 24.5283 10.3347 24.5291 10.7506 24.4147L17.2089 22.6255C17.6249 22.5099 17.9957 22.0653 18.0336 21.6358L19.6705 3.29218C19.7084 2.86312 19.3878 2.5 18.9565 2.5ZM15.8497 9.11876C15.8494 9.12156 15.8472 9.12376 15.8445 9.12422C15.8417 9.12469 15.839 9.12324 15.8378 9.12063L10.7842 11.1916C10.7122 11.2211 10.6711 11.2974 10.6861 11.3737C10.7011 11.4501 10.7681 11.5051 10.8459 11.5051H14.7768C14.9859 11.5051 15.1851 11.5939 15.3249 11.7494C15.4647 11.9049 15.5319 12.1125 15.5097 12.3204L14.8955 18.082C14.8654 18.3647 14.6755 18.6049 14.4073 18.6992L10.2349 20.1673C10.0778 20.2226 9.90649 20.2231 9.74898 20.1685L5.59612 18.7299C5.3263 18.6365 5.13476 18.3956 5.10443 18.1117L4.826 15.5023C4.81137 15.3653 4.85564 15.2286 4.94771 15.1262C5.03983 15.0237 5.17108 14.9652 5.30886 14.9652H6.46449C6.71281 14.9652 6.92108 15.1525 6.94735 15.3994L7.11818 17.0033L9.99361 18.0028L12.8822 16.9941L13.2355 13.6677H5.06821C4.82063 13.6677 4.61269 13.4815 4.58553 13.2354L4.43003 11.8256C4.40629 11.6105 4.52762 11.4057 4.72757 11.3233L9.95472 9.16825C10.014 9.14381 10.0477 9.08094 10.0353 9.01803C10.0228 8.95517 9.96771 8.90988 9.90363 8.90988H4.40016C4.23447 8.90988 4.09552 8.78476 4.07823 8.62005L3.91903 7.10473C3.90945 7.01354 3.93904 6.92254 4.00041 6.85435C4.06177 6.7862 4.14922 6.74727 4.24092 6.74727H15.7564C15.8486 6.74727 15.9365 6.78662 15.9979 6.85537C16.0593 6.92417 16.0885 7.01588 16.078 7.10748L15.8497 9.11876Z" fill="white"/>
<path d="M29.895 9.53001C29.465 9.53001 29.08 9.61501 28.74 9.78501C28.41 9.95501 28.13 10.2 27.9 10.52C27.67 10.83 27.495 11.21 27.375 11.66C27.265 12.11 27.21 12.615 27.21 13.175C27.21 13.935 27.3 14.585 27.48 15.125C27.67 15.655 27.965 16.06 28.365 16.34C28.765 16.62 29.275 16.76 29.895 16.76C30.335 16.76 30.77 16.71 31.2 16.61C31.64 16.51 32.115 16.37 32.625 16.19V18.095C32.155 18.285 31.69 18.425 31.23 18.515C30.77 18.605 30.255 18.65 29.685 18.65C28.585 18.65 27.675 18.425 26.955 17.975C26.245 17.515 25.72 16.875 25.38 16.055C25.04 15.225 24.87 14.26 24.87 13.16C24.87 12.35 24.98 11.61 25.2 10.94C25.42 10.26 25.74 9.67502 26.16 9.18502C26.59 8.69502 27.115 8.31501 27.735 8.04501C28.365 7.77501 29.085 7.64001 29.895 7.64001C30.425 7.64001 30.955 7.71001 31.485 7.85001C32.025 7.98001 32.54 8.16001 33.03 8.39001L32.295 10.235C31.895 10.045 31.49 9.88001 31.08 9.74001C30.68 9.60001 30.285 9.53001 29.895 9.53001ZM41.2158 15.53C41.2158 16.16 41.0608 16.71 40.7508 17.18C40.4408 17.65 39.9908 18.015 39.4008 18.275C38.8208 18.525 38.1108 18.65 37.2708 18.65C36.9008 18.65 36.5358 18.625 36.1758 18.575C35.8258 18.525 35.4858 18.455 35.1558 18.365C34.8358 18.265 34.5308 18.145 34.2408 18.005V15.89C34.7508 16.11 35.2758 16.315 35.8158 16.505C36.3658 16.685 36.9108 16.775 37.4508 16.775C37.8208 16.775 38.1158 16.725 38.3358 16.625C38.5658 16.525 38.7308 16.39 38.8308 16.22C38.9408 16.05 38.9958 15.855 38.9958 15.635C38.9958 15.365 38.9008 15.135 38.7108 14.945C38.5308 14.755 38.2858 14.58 37.9758 14.42C37.6658 14.25 37.3108 14.07 36.9108 13.88C36.6608 13.76 36.3908 13.62 36.1008 13.46C35.8108 13.29 35.5308 13.085 35.2608 12.845C35.0008 12.595 34.7858 12.295 34.6158 11.945C34.4458 11.595 34.3608 11.175 34.3608 10.685C34.3608 10.045 34.5058 9.50001 34.7958 9.05001C35.0958 8.59001 35.5158 8.24001 36.0558 8.00001C36.6058 7.76001 37.2508 7.64001 37.9908 7.64001C38.5508 7.64001 39.0808 7.70501 39.5808 7.83501C40.0908 7.96501 40.6208 8.15001 41.1708 8.39001L40.4358 10.16C39.9458 9.96001 39.5058 9.80501 39.1158 9.69501C38.7258 9.58501 38.3258 9.53001 37.9158 9.53001C37.6358 9.53001 37.3958 9.57501 37.1958 9.66501C36.9958 9.75501 36.8408 9.88001 36.7308 10.04C36.6308 10.2 36.5808 10.39 36.5808 10.61C36.5808 10.86 36.6558 11.075 36.8058 11.255C36.9558 11.425 37.1808 11.59 37.4808 11.75C37.7808 11.91 38.1558 12.1 38.6058 12.32C39.1558 12.58 39.6208 12.85 40.0008 13.13C40.3908 13.41 40.6908 13.74 40.9008 14.12C41.1108 14.5 41.2158 14.97 41.2158 15.53ZM49.4775 15.53C49.4775 16.16 49.3225 16.71 49.0125 17.18C48.7025 17.65 48.2525 18.015 47.6625 18.275C47.0825 18.525 46.3725 18.65 45.5325 18.65C45.1625 18.65 44.7975 18.625 44.4375 18.575C44.0875 18.525 43.7475 18.455 43.4175 18.365C43.0975 18.265 42.7925 18.145 42.5025 18.005V15.89C43.0125 16.11 43.5375 16.315 44.0775 16.505C44.6275 16.685 45.1725 16.775 45.7125 16.775C46.0825 16.775 46.3775 16.725 46.5975 16.625C46.8275 16.525 46.9925 16.39 47.0925 16.22C47.2025 16.05 47.2575 15.855 47.2575 15.635C47.2575 15.365 47.1625 15.135 46.9725 14.945C46.7925 14.755 46.5475 14.58 46.2375 14.42C45.9275 14.25 45.5725 14.07 45.1725 13.88C44.9225 13.76 44.6525 13.62 44.3625 13.46C44.0725 13.29 43.7925 13.085 43.5225 12.845C43.2625 12.595 43.0475 12.295 42.8775 11.945C42.7075 11.595 42.6225 11.175 42.6225 10.685C42.6225 10.045 42.7675 9.50001 43.0575 9.05001C43.3575 8.59001 43.7775 8.24001 44.3175 8.00001C44.8675 7.76001 45.5125 7.64001 46.2525 7.64001C46.8125 7.64001 47.3425 7.70501 47.8425 7.83501C48.3525 7.96501 48.8825 8.15001 49.4325 8.39001L48.6975 10.16C48.2075 9.96001 47.7675 9.80501 47.3775 9.69501C46.9875 9.58501 46.5875 9.53001 46.1775 9.53001C45.8975 9.53001 45.6575 9.57501 45.4575 9.66501C45.2575 9.75501 45.1025 9.88001 44.9925 10.04C44.8925 10.2 44.8425 10.39 44.8425 10.61C44.8425 10.86 44.9175 11.075 45.0675 11.255C45.2175 11.425 45.4425 11.59 45.7425 11.75C46.0425 11.91 46.4175 12.1 46.8675 12.32C47.4175 12.58 47.8825 12.85 48.2625 13.13C48.6525 13.41 48.9525 13.74 49.1625 14.12C49.3725 14.5 49.4775 14.97 49.4775 15.53Z" fill="white"/>
</g>
</g>
<defs>
<clipPath id="clip0_21_215">
<rect width="51" height="27" fill="white" transform="translate(0 0.5)"/>
</clipPath>
</defs>
</svg>
