<svg width="81" height="23" viewBox="0 0 81 23" fill="none" xmlns="http://www.w3.org/2000/svg">
<g clip-path="url(#clip0_21_110)">
<mask id="mask0_21_110" style="mask-type:luminance" maskUnits="userSpaceOnUse" x="0" y="0" width="81" height="23">
<path d="M81 0.5H0V22.5003H81V0.5Z" fill="white"/>
</mask>
<g mask="url(#mask0_21_110)">
<path fill-rule="evenodd" clip-rule="evenodd" d="M13.497 0.550014L1.32367 1.44908C0.341733 1.53415 0 2.17582 0 2.94508V16.2903C0 16.8894 0.212667 17.402 0.726 18.087L3.58747 21.8079C4.05753 22.407 4.48507 22.5354 5.38267 22.4928L19.5191 21.637C20.7145 21.552 21.0569 20.9954 21.0569 20.0545V5.04095C21.0569 4.55475 20.8648 4.41468 20.2994 3.99962C20.2668 3.97618 20.2344 3.95271 20.2019 3.92922L16.3167 1.19168C15.3765 0.508214 14.9923 0.421681 13.497 0.550014ZM5.7024 4.79528C4.54813 4.87302 4.28633 4.89062 3.63073 4.35748L1.96387 3.03162C1.79447 2.86002 1.87953 2.64588 2.30633 2.60335L14.0089 1.74828C14.9915 1.66248 15.5034 2.00495 15.8877 2.30415L17.8948 3.75835C17.9806 3.80162 18.194 4.05755 17.9373 4.05755L5.852 4.78502L5.7024 4.79528ZM4.35673 19.9262V7.18082C4.35673 6.62422 4.5276 6.36755 5.03947 6.32428L18.92 5.51175C19.3908 5.46922 19.6035 5.76842 19.6035 6.32428V18.9846C19.6035 19.5412 19.5177 20.012 18.7491 20.0545L5.46627 20.8245C4.69773 20.867 4.35673 20.6111 4.35673 19.9262ZM17.4687 7.86431C17.5538 8.24931 17.4687 8.63431 17.0837 8.67831L16.4435 8.80518V18.2153C15.8877 18.5145 15.3758 18.6854 14.9483 18.6854C14.2648 18.6854 14.0939 18.4712 13.5821 17.8303L9.39547 11.2435V17.6162L10.7199 17.9161C10.7199 17.9161 10.7199 18.6861 9.6514 18.6861L6.7056 18.857C6.6198 18.6854 6.7056 18.2578 7.00407 18.1728L7.77333 17.9594V9.53338L6.7056 9.44685C6.6198 9.06184 6.8332 8.50598 7.4316 8.46271L10.5923 8.25005L14.9483 14.9219V9.01931L13.838 8.89171C13.7522 8.42018 14.0939 8.07771 14.5207 8.03591L17.4687 7.86431Z" fill="white"/>
<path d="M30.2592 18.2923V9.0646H30.4137L36.844 18.2923H38.8688V4.73192H36.6174V13.9503H36.463L30.0326 4.73192H28V18.2912H30.2603L30.2592 18.2923ZM45.2315 18.5C48.2021 18.5 50.0092 16.4888 50.0092 13.1523C50.0092 9.82522 48.1931 7.80468 45.2315 7.80468C42.2801 7.80468 40.4549 9.83455 40.4549 13.1523C40.4549 16.4888 42.2531 18.5 45.2315 18.5ZM45.2315 16.5448C43.6611 16.5448 42.7626 15.3047 42.7626 13.1523C42.7626 11.0093 43.6611 9.75989 45.2315 9.75989C46.794 9.75989 47.6925 11.0093 47.6925 13.1523C47.6925 15.3047 46.803 16.5448 45.2315 16.5448ZM52.0666 5.49366V8.07766H50.4962V9.93838H52.0666V15.5485C52.0666 17.5411 52.9753 18.3402 55.2548 18.3402C55.6899 18.3402 56.1082 18.2935 56.4351 18.227V16.4036C56.1623 16.4316 55.9898 16.4503 55.6719 16.4503C54.7283 16.4503 54.31 16 54.31 14.9851V9.93838H56.4351V8.07766H54.31V5.49249H52.0666V5.49366ZM57.7845 18.2923H60.028V8.01117H57.7845V18.2923ZM58.9017 6.31144C59.6458 6.31144 60.2455 5.68965 60.2455 4.91041C60.2455 4.12996 59.6469 3.5 58.9017 3.5C58.1667 3.5 57.5579 4.12996 57.5579 4.91041C57.5579 5.68965 58.1667 6.31027 58.9017 6.31027V6.31144ZM66.1821 18.5C69.1516 18.5 70.9587 16.4888 70.9587 13.1523C70.9587 9.82522 69.1426 7.80468 66.1821 7.80468C63.2296 7.80468 61.4044 9.83455 61.4044 13.1523C61.4044 16.4888 63.2026 18.5 66.1821 18.5ZM66.1821 16.5448C64.6106 16.5448 63.711 15.3047 63.711 13.1523C63.711 11.0093 64.6106 9.75989 66.1821 9.75989C67.7435 9.75989 68.6431 11.0093 68.6431 13.1523C68.6431 15.3047 67.7525 16.5448 66.1821 16.5448ZM72.2991 18.2923H74.5516V12.3066C74.5516 10.7935 75.3971 9.83455 76.7398 9.83455C78.1117 9.83455 78.7464 10.6243 78.7464 12.1934V18.2923H81V11.6393C81 9.18593 79.7915 7.80468 77.5762 7.80468C76.0949 7.80468 75.0961 8.5093 74.6237 9.65606H74.4693V8.01117H72.2991V18.2923Z" fill="white"/>
</g>
</g>
<defs>
<clipPath id="clip0_21_110">
<rect width="81" height="22" fill="white" transform="translate(0 0.5)"/>
</clipPath>
</defs>
</svg>
